<?xml version="1.0" encoding="utf-8" standalone="no"?>
<!DOCTYPE svg PUBLIC "-//W3C//DTD SVG 1.1//EN"
  "http://www.w3.org/Graphics/SVG/1.1/DTD/svg11.dtd">
<!-- Created with matplotlib (http://matplotlib.org/) -->
<svg height="576pt" version="1.1" viewBox="0 0 792 576" width="792pt" xmlns="http://www.w3.org/2000/svg" xmlns:xlink="http://www.w3.org/1999/xlink">
 <defs>
  <style type="text/css">
*{stroke-linecap:butt;stroke-linejoin:round;stroke-miterlimit:100000;}
  </style>
 </defs>
 <g id="figure_1">
  <g id="patch_1">
   <path d="M 0 576 
L 792 576 
L 792 0 
L 0 0 
z
" style="fill:#ffffff;"/>
  </g>
  <g id="axes_1">
   <g id="patch_2">
    <path d="M 99 518.4 
L 653.4 518.4 
L 653.4 57.6 
L 99 57.6 
z
" style="fill:#e5e5e5;"/>
   </g>
   <g id="matplotlib.axis_1">
    <g id="xtick_1">
     <g id="line2d_1">
      <path clip-path="url(#peff4c6d16c)" d="M 99 518.4 
L 99 57.6 
" style="fill:none;stroke:#ffffff;stroke-linecap:square;stroke-width:1.4;"/>
     </g>
     <g id="line2d_2">
      <defs>
       <path d="M 0 0 
L 0 5 
" id="m042797d3f1" style="stroke:#7f7f7f;stroke-width:1.4;"/>
      </defs>
      <g>
       <use style="fill:#7f7f7f;stroke:#7f7f7f;stroke-width:1.4;" x="99.0" xlink:href="#m042797d3f1" y="518.4"/>
      </g>
     </g>
     <g id="text_1">
      <!-- $\mathdefault{10^{6}}$ -->
      <defs>
       <path d="M 31.78125 66.40625 
Q 24.171875 66.40625 20.328125 58.90625 
Q 16.5 51.421875 16.5 36.375 
Q 16.5 21.390625 20.328125 13.890625 
Q 24.171875 6.390625 31.78125 6.390625 
Q 39.453125 6.390625 43.28125 13.890625 
Q 47.125 21.390625 47.125 36.375 
Q 47.125 51.421875 43.28125 58.90625 
Q 39.453125 66.40625 31.78125 66.40625 
M 31.78125 74.21875 
Q 44.046875 74.21875 50.515625 64.515625 
Q 56.984375 54.828125 56.984375 36.375 
Q 56.984375 17.96875 50.515625 8.265625 
Q 44.046875 -1.421875 31.78125 -1.421875 
Q 19.53125 -1.421875 13.0625 8.265625 
Q 6.59375 17.96875 6.59375 36.375 
Q 6.59375 54.828125 13.0625 64.515625 
Q 19.53125 74.21875 31.78125 74.21875 
" id="BitstreamVeraSans-Roman-30"/>
       <path d="M 12.40625 8.296875 
L 28.515625 8.296875 
L 28.515625 63.921875 
L 10.984375 60.40625 
L 10.984375 69.390625 
L 28.421875 72.90625 
L 38.28125 72.90625 
L 38.28125 8.296875 
L 54.390625 8.296875 
L 54.390625 0 
L 12.40625 0 
z
" id="BitstreamVeraSans-Roman-31"/>
       <path d="M 33.015625 40.375 
Q 26.375 40.375 22.484375 35.828125 
Q 18.609375 31.296875 18.609375 23.390625 
Q 18.609375 15.53125 22.484375 10.953125 
Q 26.375 6.390625 33.015625 6.390625 
Q 39.65625 6.390625 43.53125 10.953125 
Q 47.40625 15.53125 47.40625 23.390625 
Q 47.40625 31.296875 43.53125 35.828125 
Q 39.65625 40.375 33.015625 40.375 
M 52.59375 71.296875 
L 52.59375 62.3125 
Q 48.875 64.0625 45.09375 64.984375 
Q 41.3125 65.921875 37.59375 65.921875 
Q 27.828125 65.921875 22.671875 59.328125 
Q 17.53125 52.734375 16.796875 39.40625 
Q 19.671875 43.65625 24.015625 45.921875 
Q 28.375 48.1875 33.59375 48.1875 
Q 44.578125 48.1875 50.953125 41.515625 
Q 57.328125 34.859375 57.328125 23.390625 
Q 57.328125 12.15625 50.6875 5.359375 
Q 44.046875 -1.421875 33.015625 -1.421875 
Q 20.359375 -1.421875 13.671875 8.265625 
Q 6.984375 17.96875 6.984375 36.375 
Q 6.984375 53.65625 15.1875 63.9375 
Q 23.390625 74.21875 37.203125 74.21875 
Q 40.921875 74.21875 44.703125 73.484375 
Q 48.484375 72.75 52.59375 71.296875 
" id="BitstreamVeraSans-Roman-36"/>
      </defs>
      <g style="fill:#7f7f7f;" transform="translate(87.84 534.144375)scale(0.12 -0.12)">
       <use transform="translate(0.0 0.796875)" xlink:href="#BitstreamVeraSans-Roman-31"/>
       <use transform="translate(63.623046875 0.796875)" xlink:href="#BitstreamVeraSans-Roman-30"/>
       <use transform="translate(132.75859375 48.046875)scale(0.7)" xlink:href="#BitstreamVeraSans-Roman-36"/>
      </g>
     </g>
    </g>
    <g id="xtick_2">
     <g id="line2d_3">
      <path clip-path="url(#peff4c6d16c)" d="M 178.2 518.4 
L 178.2 57.6 
" style="fill:none;stroke:#ffffff;stroke-linecap:square;stroke-width:1.4;"/>
     </g>
     <g id="line2d_4">
      <g>
       <use style="fill:#7f7f7f;stroke:#7f7f7f;stroke-width:1.4;" x="178.2" xlink:href="#m042797d3f1" y="518.4"/>
      </g>
     </g>
     <g id="text_2">
      <!-- $\mathdefault{10^{7}}$ -->
      <defs>
       <path d="M 8.203125 72.90625 
L 55.078125 72.90625 
L 55.078125 68.703125 
L 28.609375 0 
L 18.3125 0 
L 43.21875 64.59375 
L 8.203125 64.59375 
z
" id="BitstreamVeraSans-Roman-37"/>
      </defs>
      <g style="fill:#7f7f7f;" transform="translate(167.04 534.024375)scale(0.12 -0.12)">
       <use transform="translate(0.0 0.715625)" xlink:href="#BitstreamVeraSans-Roman-31"/>
       <use transform="translate(63.623046875 0.715625)" xlink:href="#BitstreamVeraSans-Roman-30"/>
       <use transform="translate(132.75859375 47.965625)scale(0.7)" xlink:href="#BitstreamVeraSans-Roman-37"/>
      </g>
     </g>
    </g>
    <g id="xtick_3">
     <g id="line2d_5">
      <path clip-path="url(#peff4c6d16c)" d="M 257.4 518.4 
L 257.4 57.6 
" style="fill:none;stroke:#ffffff;stroke-linecap:square;stroke-width:1.4;"/>
     </g>
     <g id="line2d_6">
      <g>
       <use style="fill:#7f7f7f;stroke:#7f7f7f;stroke-width:1.4;" x="257.4" xlink:href="#m042797d3f1" y="518.4"/>
      </g>
     </g>
     <g id="text_3">
      <!-- $\mathdefault{10^{8}}$ -->
      <defs>
       <path d="M 31.78125 34.625 
Q 24.75 34.625 20.71875 30.859375 
Q 16.703125 27.09375 16.703125 20.515625 
Q 16.703125 13.921875 20.71875 10.15625 
Q 24.75 6.390625 31.78125 6.390625 
Q 38.8125 6.390625 42.859375 10.171875 
Q 46.921875 13.96875 46.921875 20.515625 
Q 46.921875 27.09375 42.890625 30.859375 
Q 38.875 34.625 31.78125 34.625 
M 21.921875 38.8125 
Q 15.578125 40.375 12.03125 44.71875 
Q 8.5 49.078125 8.5 55.328125 
Q 8.5 64.0625 14.71875 69.140625 
Q 20.953125 74.21875 31.78125 74.21875 
Q 42.671875 74.21875 48.875 69.140625 
Q 55.078125 64.0625 55.078125 55.328125 
Q 55.078125 49.078125 51.53125 44.71875 
Q 48 40.375 41.703125 38.8125 
Q 48.828125 37.15625 52.796875 32.3125 
Q 56.78125 27.484375 56.78125 20.515625 
Q 56.78125 9.90625 50.3125 4.234375 
Q 43.84375 -1.421875 31.78125 -1.421875 
Q 19.734375 -1.421875 13.25 4.234375 
Q 6.78125 9.90625 6.78125 20.515625 
Q 6.78125 27.484375 10.78125 32.3125 
Q 14.796875 37.15625 21.921875 38.8125 
M 18.3125 54.390625 
Q 18.3125 48.734375 21.84375 45.5625 
Q 25.390625 42.390625 31.78125 42.390625 
Q 38.140625 42.390625 41.71875 45.5625 
Q 45.3125 48.734375 45.3125 54.390625 
Q 45.3125 60.0625 41.71875 63.234375 
Q 38.140625 66.40625 31.78125 66.40625 
Q 25.390625 66.40625 21.84375 63.234375 
Q 18.3125 60.0625 18.3125 54.390625 
" id="BitstreamVeraSans-Roman-38"/>
      </defs>
      <g style="fill:#7f7f7f;" transform="translate(246.24 534.144375)scale(0.12 -0.12)">
       <use transform="translate(0.0 0.796875)" xlink:href="#BitstreamVeraSans-Roman-31"/>
       <use transform="translate(63.623046875 0.796875)" xlink:href="#BitstreamVeraSans-Roman-30"/>
       <use transform="translate(132.75859375 48.046875)scale(0.7)" xlink:href="#BitstreamVeraSans-Roman-38"/>
      </g>
     </g>
    </g>
    <g id="xtick_4">
     <g id="line2d_7">
      <path clip-path="url(#peff4c6d16c)" d="M 336.6 518.4 
L 336.6 57.6 
" style="fill:none;stroke:#ffffff;stroke-linecap:square;stroke-width:1.4;"/>
     </g>
     <g id="line2d_8">
      <g>
       <use style="fill:#7f7f7f;stroke:#7f7f7f;stroke-width:1.4;" x="336.6" xlink:href="#m042797d3f1" y="518.4"/>
      </g>
     </g>
     <g id="text_4">
      <!-- $\mathdefault{10^{9}}$ -->
      <defs>
       <path d="M 10.984375 1.515625 
L 10.984375 10.5 
Q 14.703125 8.734375 18.5 7.8125 
Q 22.3125 6.890625 25.984375 6.890625 
Q 35.75 6.890625 40.890625 13.453125 
Q 46.046875 20.015625 46.78125 33.40625 
Q 43.953125 29.203125 39.59375 26.953125 
Q 35.25 24.703125 29.984375 24.703125 
Q 19.046875 24.703125 12.671875 31.3125 
Q 6.296875 37.9375 6.296875 49.421875 
Q 6.296875 60.640625 12.9375 67.421875 
Q 19.578125 74.21875 30.609375 74.21875 
Q 43.265625 74.21875 49.921875 64.515625 
Q 56.59375 54.828125 56.59375 36.375 
Q 56.59375 19.140625 48.40625 8.859375 
Q 40.234375 -1.421875 26.421875 -1.421875 
Q 22.703125 -1.421875 18.890625 -0.6875 
Q 15.09375 0.046875 10.984375 1.515625 
M 30.609375 32.421875 
Q 37.25 32.421875 41.125 36.953125 
Q 45.015625 41.5 45.015625 49.421875 
Q 45.015625 57.28125 41.125 61.84375 
Q 37.25 66.40625 30.609375 66.40625 
Q 23.96875 66.40625 20.09375 61.84375 
Q 16.21875 57.28125 16.21875 49.421875 
Q 16.21875 41.5 20.09375 36.953125 
Q 23.96875 32.421875 30.609375 32.421875 
" id="BitstreamVeraSans-Roman-39"/>
      </defs>
      <g style="fill:#7f7f7f;" transform="translate(325.44 534.144375)scale(0.12 -0.12)">
       <use transform="translate(0.0 0.796875)" xlink:href="#BitstreamVeraSans-Roman-31"/>
       <use transform="translate(63.623046875 0.796875)" xlink:href="#BitstreamVeraSans-Roman-30"/>
       <use transform="translate(132.75859375 48.046875)scale(0.7)" xlink:href="#BitstreamVeraSans-Roman-39"/>
      </g>
     </g>
    </g>
    <g id="xtick_5">
     <g id="line2d_9">
      <path clip-path="url(#peff4c6d16c)" d="M 415.8 518.4 
L 415.8 57.6 
" style="fill:none;stroke:#ffffff;stroke-linecap:square;stroke-width:1.4;"/>
     </g>
     <g id="line2d_10">
      <g>
       <use style="fill:#7f7f7f;stroke:#7f7f7f;stroke-width:1.4;" x="415.8" xlink:href="#m042797d3f1" y="518.4"/>
      </g>
     </g>
     <g id="text_5">
      <!-- $\mathdefault{10^{10}}$ -->
      <g style="fill:#7f7f7f;" transform="translate(402.0 534.144375)scale(0.12 -0.12)">
       <use transform="translate(0.0 0.796875)" xlink:href="#BitstreamVeraSans-Roman-31"/>
       <use transform="translate(63.623046875 0.796875)" xlink:href="#BitstreamVeraSans-Roman-30"/>
       <use transform="translate(132.75859375 48.046875)scale(0.7)" xlink:href="#BitstreamVeraSans-Roman-31"/>
       <use transform="translate(177.294726562 48.046875)scale(0.7)" xlink:href="#BitstreamVeraSans-Roman-30"/>
      </g>
     </g>
    </g>
    <g id="xtick_6">
     <g id="line2d_11">
      <path clip-path="url(#peff4c6d16c)" d="M 495 518.4 
L 495 57.6 
" style="fill:none;stroke:#ffffff;stroke-linecap:square;stroke-width:1.4;"/>
     </g>
     <g id="line2d_12">
      <g>
       <use style="fill:#7f7f7f;stroke:#7f7f7f;stroke-width:1.4;" x="495.0" xlink:href="#m042797d3f1" y="518.4"/>
      </g>
     </g>
     <g id="text_6">
      <!-- $\mathdefault{10^{11}}$ -->
      <g style="fill:#7f7f7f;" transform="translate(481.2 534.024375)scale(0.12 -0.12)">
       <use transform="translate(0.0 0.715625)" xlink:href="#BitstreamVeraSans-Roman-31"/>
       <use transform="translate(63.623046875 0.715625)" xlink:href="#BitstreamVeraSans-Roman-30"/>
       <use transform="translate(132.75859375 47.965625)scale(0.7)" xlink:href="#BitstreamVeraSans-Roman-31"/>
       <use transform="translate(177.294726562 47.965625)scale(0.7)" xlink:href="#BitstreamVeraSans-Roman-31"/>
      </g>
     </g>
    </g>
    <g id="xtick_7">
     <g id="line2d_13">
      <path clip-path="url(#peff4c6d16c)" d="M 574.2 518.4 
L 574.2 57.6 
" style="fill:none;stroke:#ffffff;stroke-linecap:square;stroke-width:1.4;"/>
     </g>
     <g id="line2d_14">
      <g>
       <use style="fill:#7f7f7f;stroke:#7f7f7f;stroke-width:1.4;" x="574.2" xlink:href="#m042797d3f1" y="518.4"/>
      </g>
     </g>
     <g id="text_7">
      <!-- $\mathdefault{10^{12}}$ -->
      <defs>
       <path d="M 19.1875 8.296875 
L 53.609375 8.296875 
L 53.609375 0 
L 7.328125 0 
L 7.328125 8.296875 
Q 12.9375 14.109375 22.625 23.890625 
Q 32.328125 33.6875 34.8125 36.53125 
Q 39.546875 41.84375 41.421875 45.53125 
Q 43.3125 49.21875 43.3125 52.78125 
Q 43.3125 58.59375 39.234375 62.25 
Q 35.15625 65.921875 28.609375 65.921875 
Q 23.96875 65.921875 18.8125 64.3125 
Q 13.671875 62.703125 7.8125 59.421875 
L 7.8125 69.390625 
Q 13.765625 71.78125 18.9375 73 
Q 24.125 74.21875 28.421875 74.21875 
Q 39.75 74.21875 46.484375 68.546875 
Q 53.21875 62.890625 53.21875 53.421875 
Q 53.21875 48.921875 51.53125 44.890625 
Q 49.859375 40.875 45.40625 35.40625 
Q 44.1875 33.984375 37.640625 27.21875 
Q 31.109375 20.453125 19.1875 8.296875 
" id="BitstreamVeraSans-Roman-32"/>
      </defs>
      <g style="fill:#7f7f7f;" transform="translate(560.4 534.144375)scale(0.12 -0.12)">
       <use transform="translate(0.0 0.796875)" xlink:href="#BitstreamVeraSans-Roman-31"/>
       <use transform="translate(63.623046875 0.796875)" xlink:href="#BitstreamVeraSans-Roman-30"/>
       <use transform="translate(132.75859375 48.046875)scale(0.7)" xlink:href="#BitstreamVeraSans-Roman-31"/>
       <use transform="translate(177.294726562 48.046875)scale(0.7)" xlink:href="#BitstreamVeraSans-Roman-32"/>
      </g>
     </g>
    </g>
    <g id="xtick_8">
     <g id="line2d_15">
      <path clip-path="url(#peff4c6d16c)" d="M 653.4 518.4 
L 653.4 57.6 
" style="fill:none;stroke:#ffffff;stroke-linecap:square;stroke-width:1.4;"/>
     </g>
     <g id="line2d_16">
      <g>
       <use style="fill:#7f7f7f;stroke:#7f7f7f;stroke-width:1.4;" x="653.4" xlink:href="#m042797d3f1" y="518.4"/>
      </g>
     </g>
     <g id="text_8">
      <!-- $\mathdefault{10^{13}}$ -->
      <defs>
       <path d="M 40.578125 39.3125 
Q 47.65625 37.796875 51.625 33 
Q 55.609375 28.21875 55.609375 21.1875 
Q 55.609375 10.40625 48.1875 4.484375 
Q 40.765625 -1.421875 27.09375 -1.421875 
Q 22.515625 -1.421875 17.65625 -0.515625 
Q 12.796875 0.390625 7.625 2.203125 
L 7.625 11.71875 
Q 11.71875 9.328125 16.59375 8.109375 
Q 21.484375 6.890625 26.8125 6.890625 
Q 36.078125 6.890625 40.9375 10.546875 
Q 45.796875 14.203125 45.796875 21.1875 
Q 45.796875 27.640625 41.28125 31.265625 
Q 36.765625 34.90625 28.71875 34.90625 
L 20.21875 34.90625 
L 20.21875 43.015625 
L 29.109375 43.015625 
Q 36.375 43.015625 40.234375 45.921875 
Q 44.09375 48.828125 44.09375 54.296875 
Q 44.09375 59.90625 40.109375 62.90625 
Q 36.140625 65.921875 28.71875 65.921875 
Q 24.65625 65.921875 20.015625 65.03125 
Q 15.375 64.15625 9.8125 62.3125 
L 9.8125 71.09375 
Q 15.4375 72.65625 20.34375 73.4375 
Q 25.25 74.21875 29.59375 74.21875 
Q 40.828125 74.21875 47.359375 69.109375 
Q 53.90625 64.015625 53.90625 55.328125 
Q 53.90625 49.265625 50.4375 45.09375 
Q 46.96875 40.921875 40.578125 39.3125 
" id="BitstreamVeraSans-Roman-33"/>
      </defs>
      <g style="fill:#7f7f7f;" transform="translate(639.6 534.144375)scale(0.12 -0.12)">
       <use transform="translate(0.0 0.796875)" xlink:href="#BitstreamVeraSans-Roman-31"/>
       <use transform="translate(63.623046875 0.796875)" xlink:href="#BitstreamVeraSans-Roman-30"/>
       <use transform="translate(132.75859375 48.046875)scale(0.7)" xlink:href="#BitstreamVeraSans-Roman-31"/>
       <use transform="translate(177.294726562 48.046875)scale(0.7)" xlink:href="#BitstreamVeraSans-Roman-33"/>
      </g>
     </g>
    </g>
    <g id="xtick_9">
     <g id="line2d_17">
      <path clip-path="url(#peff4c6d16c)" d="M 122.841576 518.4 
L 122.841576 57.6 
" style="fill:none;stroke:#f2f2f2;stroke-linecap:square;stroke-width:0.7;"/>
     </g>
     <g id="line2d_18">
      <defs>
       <path d="M 0 0 
L 0 0 
" id="m76e11a524f" style="stroke:#7f7f7f;stroke-width:0.5;"/>
      </defs>
      <g>
       <use style="fill:#7f7f7f;stroke:#7f7f7f;stroke-width:0.5;" x="122.841575657" xlink:href="#m76e11a524f" y="518.4"/>
      </g>
     </g>
    </g>
    <g id="xtick_10">
     <g id="line2d_19">
      <path clip-path="url(#peff4c6d16c)" d="M 136.788003 518.4 
L 136.788003 57.6 
" style="fill:none;stroke:#f2f2f2;stroke-linecap:square;stroke-width:0.7;"/>
     </g>
     <g id="line2d_20">
      <g>
       <use style="fill:#7f7f7f;stroke:#7f7f7f;stroke-width:0.5;" x="136.788003374" xlink:href="#m76e11a524f" y="518.4"/>
      </g>
     </g>
    </g>
    <g id="xtick_11">
     <g id="line2d_21">
      <path clip-path="url(#peff4c6d16c)" d="M 146.683151 518.4 
L 146.683151 57.6 
" style="fill:none;stroke:#f2f2f2;stroke-linecap:square;stroke-width:0.7;"/>
     </g>
     <g id="line2d_22">
      <g>
       <use style="fill:#7f7f7f;stroke:#7f7f7f;stroke-width:0.5;" x="146.683151313" xlink:href="#m76e11a524f" y="518.4"/>
      </g>
     </g>
    </g>
    <g id="xtick_12">
     <g id="line2d_23">
      <path clip-path="url(#peff4c6d16c)" d="M 154.358424 518.4 
L 154.358424 57.6 
" style="fill:none;stroke:#f2f2f2;stroke-linecap:square;stroke-width:0.7;"/>
     </g>
     <g id="line2d_24">
      <g>
       <use style="fill:#7f7f7f;stroke:#7f7f7f;stroke-width:0.5;" x="154.358424343" xlink:href="#m76e11a524f" y="518.4"/>
      </g>
     </g>
    </g>
    <g id="xtick_13">
     <g id="line2d_25">
      <path clip-path="url(#peff4c6d16c)" d="M 160.629579 518.4 
L 160.629579 57.6 
" style="fill:none;stroke:#f2f2f2;stroke-linecap:square;stroke-width:0.7;"/>
     </g>
     <g id="line2d_26">
      <g>
       <use style="fill:#7f7f7f;stroke:#7f7f7f;stroke-width:0.5;" x="160.62957903" xlink:href="#m76e11a524f" y="518.4"/>
      </g>
     </g>
    </g>
    <g id="xtick_14">
     <g id="line2d_27">
      <path clip-path="url(#peff4c6d16c)" d="M 165.931765 518.4 
L 165.931765 57.6 
" style="fill:none;stroke:#f2f2f2;stroke-linecap:square;stroke-width:0.7;"/>
     </g>
     <g id="line2d_28">
      <g>
       <use style="fill:#7f7f7f;stroke:#7f7f7f;stroke-width:0.5;" x="165.931764769" xlink:href="#m76e11a524f" y="518.4"/>
      </g>
     </g>
    </g>
    <g id="xtick_15">
     <g id="line2d_29">
      <path clip-path="url(#peff4c6d16c)" d="M 170.524727 518.4 
L 170.524727 57.6 
" style="fill:none;stroke:#f2f2f2;stroke-linecap:square;stroke-width:0.7;"/>
     </g>
     <g id="line2d_30">
      <g>
       <use style="fill:#7f7f7f;stroke:#7f7f7f;stroke-width:0.5;" x="170.52472697" xlink:href="#m76e11a524f" y="518.4"/>
      </g>
     </g>
    </g>
    <g id="xtick_16">
     <g id="line2d_31">
      <path clip-path="url(#peff4c6d16c)" d="M 174.576007 518.4 
L 174.576007 57.6 
" style="fill:none;stroke:#f2f2f2;stroke-linecap:square;stroke-width:0.7;"/>
     </g>
     <g id="line2d_32">
      <g>
       <use style="fill:#7f7f7f;stroke:#7f7f7f;stroke-width:0.5;" x="174.576006748" xlink:href="#m76e11a524f" y="518.4"/>
      </g>
     </g>
    </g>
    <g id="xtick_17">
     <g id="line2d_33">
      <path clip-path="url(#peff4c6d16c)" d="M 202.041576 518.4 
L 202.041576 57.6 
" style="fill:none;stroke:#f2f2f2;stroke-linecap:square;stroke-width:0.7;"/>
     </g>
     <g id="line2d_34">
      <g>
       <use style="fill:#7f7f7f;stroke:#7f7f7f;stroke-width:0.5;" x="202.041575657" xlink:href="#m76e11a524f" y="518.4"/>
      </g>
     </g>
    </g>
    <g id="xtick_18">
     <g id="line2d_35">
      <path clip-path="url(#peff4c6d16c)" d="M 215.988003 518.4 
L 215.988003 57.6 
" style="fill:none;stroke:#f2f2f2;stroke-linecap:square;stroke-width:0.7;"/>
     </g>
     <g id="line2d_36">
      <g>
       <use style="fill:#7f7f7f;stroke:#7f7f7f;stroke-width:0.5;" x="215.988003374" xlink:href="#m76e11a524f" y="518.4"/>
      </g>
     </g>
    </g>
    <g id="xtick_19">
     <g id="line2d_37">
      <path clip-path="url(#peff4c6d16c)" d="M 225.883151 518.4 
L 225.883151 57.6 
" style="fill:none;stroke:#f2f2f2;stroke-linecap:square;stroke-width:0.7;"/>
     </g>
     <g id="line2d_38">
      <g>
       <use style="fill:#7f7f7f;stroke:#7f7f7f;stroke-width:0.5;" x="225.883151313" xlink:href="#m76e11a524f" y="518.4"/>
      </g>
     </g>
    </g>
    <g id="xtick_20">
     <g id="line2d_39">
      <path clip-path="url(#peff4c6d16c)" d="M 233.558424 518.4 
L 233.558424 57.6 
" style="fill:none;stroke:#f2f2f2;stroke-linecap:square;stroke-width:0.7;"/>
     </g>
     <g id="line2d_40">
      <g>
       <use style="fill:#7f7f7f;stroke:#7f7f7f;stroke-width:0.5;" x="233.558424343" xlink:href="#m76e11a524f" y="518.4"/>
      </g>
     </g>
    </g>
    <g id="xtick_21">
     <g id="line2d_41">
      <path clip-path="url(#peff4c6d16c)" d="M 239.829579 518.4 
L 239.829579 57.6 
" style="fill:none;stroke:#f2f2f2;stroke-linecap:square;stroke-width:0.7;"/>
     </g>
     <g id="line2d_42">
      <g>
       <use style="fill:#7f7f7f;stroke:#7f7f7f;stroke-width:0.5;" x="239.82957903" xlink:href="#m76e11a524f" y="518.4"/>
      </g>
     </g>
    </g>
    <g id="xtick_22">
     <g id="line2d_43">
      <path clip-path="url(#peff4c6d16c)" d="M 245.131765 518.4 
L 245.131765 57.6 
" style="fill:none;stroke:#f2f2f2;stroke-linecap:square;stroke-width:0.7;"/>
     </g>
     <g id="line2d_44">
      <g>
       <use style="fill:#7f7f7f;stroke:#7f7f7f;stroke-width:0.5;" x="245.131764769" xlink:href="#m76e11a524f" y="518.4"/>
      </g>
     </g>
    </g>
    <g id="xtick_23">
     <g id="line2d_45">
      <path clip-path="url(#peff4c6d16c)" d="M 249.724727 518.4 
L 249.724727 57.6 
" style="fill:none;stroke:#f2f2f2;stroke-linecap:square;stroke-width:0.7;"/>
     </g>
     <g id="line2d_46">
      <g>
       <use style="fill:#7f7f7f;stroke:#7f7f7f;stroke-width:0.5;" x="249.72472697" xlink:href="#m76e11a524f" y="518.4"/>
      </g>
     </g>
    </g>
    <g id="xtick_24">
     <g id="line2d_47">
      <path clip-path="url(#peff4c6d16c)" d="M 253.776007 518.4 
L 253.776007 57.6 
" style="fill:none;stroke:#f2f2f2;stroke-linecap:square;stroke-width:0.7;"/>
     </g>
     <g id="line2d_48">
      <g>
       <use style="fill:#7f7f7f;stroke:#7f7f7f;stroke-width:0.5;" x="253.776006748" xlink:href="#m76e11a524f" y="518.4"/>
      </g>
     </g>
    </g>
    <g id="xtick_25">
     <g id="line2d_49">
      <path clip-path="url(#peff4c6d16c)" d="M 281.241576 518.4 
L 281.241576 57.6 
" style="fill:none;stroke:#f2f2f2;stroke-linecap:square;stroke-width:0.7;"/>
     </g>
     <g id="line2d_50">
      <g>
       <use style="fill:#7f7f7f;stroke:#7f7f7f;stroke-width:0.5;" x="281.241575657" xlink:href="#m76e11a524f" y="518.4"/>
      </g>
     </g>
    </g>
    <g id="xtick_26">
     <g id="line2d_51">
      <path clip-path="url(#peff4c6d16c)" d="M 295.188003 518.4 
L 295.188003 57.6 
" style="fill:none;stroke:#f2f2f2;stroke-linecap:square;stroke-width:0.7;"/>
     </g>
     <g id="line2d_52">
      <g>
       <use style="fill:#7f7f7f;stroke:#7f7f7f;stroke-width:0.5;" x="295.188003374" xlink:href="#m76e11a524f" y="518.4"/>
      </g>
     </g>
    </g>
    <g id="xtick_27">
     <g id="line2d_53">
      <path clip-path="url(#peff4c6d16c)" d="M 305.083151 518.4 
L 305.083151 57.6 
" style="fill:none;stroke:#f2f2f2;stroke-linecap:square;stroke-width:0.7;"/>
     </g>
     <g id="line2d_54">
      <g>
       <use style="fill:#7f7f7f;stroke:#7f7f7f;stroke-width:0.5;" x="305.083151313" xlink:href="#m76e11a524f" y="518.4"/>
      </g>
     </g>
    </g>
    <g id="xtick_28">
     <g id="line2d_55">
      <path clip-path="url(#peff4c6d16c)" d="M 312.758424 518.4 
L 312.758424 57.6 
" style="fill:none;stroke:#f2f2f2;stroke-linecap:square;stroke-width:0.7;"/>
     </g>
     <g id="line2d_56">
      <g>
       <use style="fill:#7f7f7f;stroke:#7f7f7f;stroke-width:0.5;" x="312.758424343" xlink:href="#m76e11a524f" y="518.4"/>
      </g>
     </g>
    </g>
    <g id="xtick_29">
     <g id="line2d_57">
      <path clip-path="url(#peff4c6d16c)" d="M 319.029579 518.4 
L 319.029579 57.6 
" style="fill:none;stroke:#f2f2f2;stroke-linecap:square;stroke-width:0.7;"/>
     </g>
     <g id="line2d_58">
      <g>
       <use style="fill:#7f7f7f;stroke:#7f7f7f;stroke-width:0.5;" x="319.02957903" xlink:href="#m76e11a524f" y="518.4"/>
      </g>
     </g>
    </g>
    <g id="xtick_30">
     <g id="line2d_59">
      <path clip-path="url(#peff4c6d16c)" d="M 324.331765 518.4 
L 324.331765 57.6 
" style="fill:none;stroke:#f2f2f2;stroke-linecap:square;stroke-width:0.7;"/>
     </g>
     <g id="line2d_60">
      <g>
       <use style="fill:#7f7f7f;stroke:#7f7f7f;stroke-width:0.5;" x="324.331764769" xlink:href="#m76e11a524f" y="518.4"/>
      </g>
     </g>
    </g>
    <g id="xtick_31">
     <g id="line2d_61">
      <path clip-path="url(#peff4c6d16c)" d="M 328.924727 518.4 
L 328.924727 57.6 
" style="fill:none;stroke:#f2f2f2;stroke-linecap:square;stroke-width:0.7;"/>
     </g>
     <g id="line2d_62">
      <g>
       <use style="fill:#7f7f7f;stroke:#7f7f7f;stroke-width:0.5;" x="328.92472697" xlink:href="#m76e11a524f" y="518.4"/>
      </g>
     </g>
    </g>
    <g id="xtick_32">
     <g id="line2d_63">
      <path clip-path="url(#peff4c6d16c)" d="M 332.976007 518.4 
L 332.976007 57.6 
" style="fill:none;stroke:#f2f2f2;stroke-linecap:square;stroke-width:0.7;"/>
     </g>
     <g id="line2d_64">
      <g>
       <use style="fill:#7f7f7f;stroke:#7f7f7f;stroke-width:0.5;" x="332.976006748" xlink:href="#m76e11a524f" y="518.4"/>
      </g>
     </g>
    </g>
    <g id="xtick_33">
     <g id="line2d_65">
      <path clip-path="url(#peff4c6d16c)" d="M 360.441576 518.4 
L 360.441576 57.6 
" style="fill:none;stroke:#f2f2f2;stroke-linecap:square;stroke-width:0.7;"/>
     </g>
     <g id="line2d_66">
      <g>
       <use style="fill:#7f7f7f;stroke:#7f7f7f;stroke-width:0.5;" x="360.441575657" xlink:href="#m76e11a524f" y="518.4"/>
      </g>
     </g>
    </g>
    <g id="xtick_34">
     <g id="line2d_67">
      <path clip-path="url(#peff4c6d16c)" d="M 374.388003 518.4 
L 374.388003 57.6 
" style="fill:none;stroke:#f2f2f2;stroke-linecap:square;stroke-width:0.7;"/>
     </g>
     <g id="line2d_68">
      <g>
       <use style="fill:#7f7f7f;stroke:#7f7f7f;stroke-width:0.5;" x="374.388003374" xlink:href="#m76e11a524f" y="518.4"/>
      </g>
     </g>
    </g>
    <g id="xtick_35">
     <g id="line2d_69">
      <path clip-path="url(#peff4c6d16c)" d="M 384.283151 518.4 
L 384.283151 57.6 
" style="fill:none;stroke:#f2f2f2;stroke-linecap:square;stroke-width:0.7;"/>
     </g>
     <g id="line2d_70">
      <g>
       <use style="fill:#7f7f7f;stroke:#7f7f7f;stroke-width:0.5;" x="384.283151313" xlink:href="#m76e11a524f" y="518.4"/>
      </g>
     </g>
    </g>
    <g id="xtick_36">
     <g id="line2d_71">
      <path clip-path="url(#peff4c6d16c)" d="M 391.958424 518.4 
L 391.958424 57.6 
" style="fill:none;stroke:#f2f2f2;stroke-linecap:square;stroke-width:0.7;"/>
     </g>
     <g id="line2d_72">
      <g>
       <use style="fill:#7f7f7f;stroke:#7f7f7f;stroke-width:0.5;" x="391.958424343" xlink:href="#m76e11a524f" y="518.4"/>
      </g>
     </g>
    </g>
    <g id="xtick_37">
     <g id="line2d_73">
      <path clip-path="url(#peff4c6d16c)" d="M 398.229579 518.4 
L 398.229579 57.6 
" style="fill:none;stroke:#f2f2f2;stroke-linecap:square;stroke-width:0.7;"/>
     </g>
     <g id="line2d_74">
      <g>
       <use style="fill:#7f7f7f;stroke:#7f7f7f;stroke-width:0.5;" x="398.22957903" xlink:href="#m76e11a524f" y="518.4"/>
      </g>
     </g>
    </g>
    <g id="xtick_38">
     <g id="line2d_75">
      <path clip-path="url(#peff4c6d16c)" d="M 403.531765 518.4 
L 403.531765 57.6 
" style="fill:none;stroke:#f2f2f2;stroke-linecap:square;stroke-width:0.7;"/>
     </g>
     <g id="line2d_76">
      <g>
       <use style="fill:#7f7f7f;stroke:#7f7f7f;stroke-width:0.5;" x="403.531764769" xlink:href="#m76e11a524f" y="518.4"/>
      </g>
     </g>
    </g>
    <g id="xtick_39">
     <g id="line2d_77">
      <path clip-path="url(#peff4c6d16c)" d="M 408.124727 518.4 
L 408.124727 57.6 
" style="fill:none;stroke:#f2f2f2;stroke-linecap:square;stroke-width:0.7;"/>
     </g>
     <g id="line2d_78">
      <g>
       <use style="fill:#7f7f7f;stroke:#7f7f7f;stroke-width:0.5;" x="408.12472697" xlink:href="#m76e11a524f" y="518.4"/>
      </g>
     </g>
    </g>
    <g id="xtick_40">
     <g id="line2d_79">
      <path clip-path="url(#peff4c6d16c)" d="M 412.176007 518.4 
L 412.176007 57.6 
" style="fill:none;stroke:#f2f2f2;stroke-linecap:square;stroke-width:0.7;"/>
     </g>
     <g id="line2d_80">
      <g>
       <use style="fill:#7f7f7f;stroke:#7f7f7f;stroke-width:0.5;" x="412.176006748" xlink:href="#m76e11a524f" y="518.4"/>
      </g>
     </g>
    </g>
    <g id="xtick_41">
     <g id="line2d_81">
      <path clip-path="url(#peff4c6d16c)" d="M 439.641576 518.4 
L 439.641576 57.6 
" style="fill:none;stroke:#f2f2f2;stroke-linecap:square;stroke-width:0.7;"/>
     </g>
     <g id="line2d_82">
      <g>
       <use style="fill:#7f7f7f;stroke:#7f7f7f;stroke-width:0.5;" x="439.641575657" xlink:href="#m76e11a524f" y="518.4"/>
      </g>
     </g>
    </g>
    <g id="xtick_42">
     <g id="line2d_83">
      <path clip-path="url(#peff4c6d16c)" d="M 453.588003 518.4 
L 453.588003 57.6 
" style="fill:none;stroke:#f2f2f2;stroke-linecap:square;stroke-width:0.7;"/>
     </g>
     <g id="line2d_84">
      <g>
       <use style="fill:#7f7f7f;stroke:#7f7f7f;stroke-width:0.5;" x="453.588003374" xlink:href="#m76e11a524f" y="518.4"/>
      </g>
     </g>
    </g>
    <g id="xtick_43">
     <g id="line2d_85">
      <path clip-path="url(#peff4c6d16c)" d="M 463.483151 518.4 
L 463.483151 57.6 
" style="fill:none;stroke:#f2f2f2;stroke-linecap:square;stroke-width:0.7;"/>
     </g>
     <g id="line2d_86">
      <g>
       <use style="fill:#7f7f7f;stroke:#7f7f7f;stroke-width:0.5;" x="463.483151313" xlink:href="#m76e11a524f" y="518.4"/>
      </g>
     </g>
    </g>
    <g id="xtick_44">
     <g id="line2d_87">
      <path clip-path="url(#peff4c6d16c)" d="M 471.158424 518.4 
L 471.158424 57.6 
" style="fill:none;stroke:#f2f2f2;stroke-linecap:square;stroke-width:0.7;"/>
     </g>
     <g id="line2d_88">
      <g>
       <use style="fill:#7f7f7f;stroke:#7f7f7f;stroke-width:0.5;" x="471.158424343" xlink:href="#m76e11a524f" y="518.4"/>
      </g>
     </g>
    </g>
    <g id="xtick_45">
     <g id="line2d_89">
      <path clip-path="url(#peff4c6d16c)" d="M 477.429579 518.4 
L 477.429579 57.6 
" style="fill:none;stroke:#f2f2f2;stroke-linecap:square;stroke-width:0.7;"/>
     </g>
     <g id="line2d_90">
      <g>
       <use style="fill:#7f7f7f;stroke:#7f7f7f;stroke-width:0.5;" x="477.42957903" xlink:href="#m76e11a524f" y="518.4"/>
      </g>
     </g>
    </g>
    <g id="xtick_46">
     <g id="line2d_91">
      <path clip-path="url(#peff4c6d16c)" d="M 482.731765 518.4 
L 482.731765 57.6 
" style="fill:none;stroke:#f2f2f2;stroke-linecap:square;stroke-width:0.7;"/>
     </g>
     <g id="line2d_92">
      <g>
       <use style="fill:#7f7f7f;stroke:#7f7f7f;stroke-width:0.5;" x="482.731764769" xlink:href="#m76e11a524f" y="518.4"/>
      </g>
     </g>
    </g>
    <g id="xtick_47">
     <g id="line2d_93">
      <path clip-path="url(#peff4c6d16c)" d="M 487.324727 518.4 
L 487.324727 57.6 
" style="fill:none;stroke:#f2f2f2;stroke-linecap:square;stroke-width:0.7;"/>
     </g>
     <g id="line2d_94">
      <g>
       <use style="fill:#7f7f7f;stroke:#7f7f7f;stroke-width:0.5;" x="487.32472697" xlink:href="#m76e11a524f" y="518.4"/>
      </g>
     </g>
    </g>
    <g id="xtick_48">
     <g id="line2d_95">
      <path clip-path="url(#peff4c6d16c)" d="M 491.376007 518.4 
L 491.376007 57.6 
" style="fill:none;stroke:#f2f2f2;stroke-linecap:square;stroke-width:0.7;"/>
     </g>
     <g id="line2d_96">
      <g>
       <use style="fill:#7f7f7f;stroke:#7f7f7f;stroke-width:0.5;" x="491.376006748" xlink:href="#m76e11a524f" y="518.4"/>
      </g>
     </g>
    </g>
    <g id="xtick_49">
     <g id="line2d_97">
      <path clip-path="url(#peff4c6d16c)" d="M 518.841576 518.4 
L 518.841576 57.6 
" style="fill:none;stroke:#f2f2f2;stroke-linecap:square;stroke-width:0.7;"/>
     </g>
     <g id="line2d_98">
      <g>
       <use style="fill:#7f7f7f;stroke:#7f7f7f;stroke-width:0.5;" x="518.841575657" xlink:href="#m76e11a524f" y="518.4"/>
      </g>
     </g>
    </g>
    <g id="xtick_50">
     <g id="line2d_99">
      <path clip-path="url(#peff4c6d16c)" d="M 532.788003 518.4 
L 532.788003 57.6 
" style="fill:none;stroke:#f2f2f2;stroke-linecap:square;stroke-width:0.7;"/>
     </g>
     <g id="line2d_100">
      <g>
       <use style="fill:#7f7f7f;stroke:#7f7f7f;stroke-width:0.5;" x="532.788003374" xlink:href="#m76e11a524f" y="518.4"/>
      </g>
     </g>
    </g>
    <g id="xtick_51">
     <g id="line2d_101">
      <path clip-path="url(#peff4c6d16c)" d="M 542.683151 518.4 
L 542.683151 57.6 
" style="fill:none;stroke:#f2f2f2;stroke-linecap:square;stroke-width:0.7;"/>
     </g>
     <g id="line2d_102">
      <g>
       <use style="fill:#7f7f7f;stroke:#7f7f7f;stroke-width:0.5;" x="542.683151313" xlink:href="#m76e11a524f" y="518.4"/>
      </g>
     </g>
    </g>
    <g id="xtick_52">
     <g id="line2d_103">
      <path clip-path="url(#peff4c6d16c)" d="M 550.358424 518.4 
L 550.358424 57.6 
" style="fill:none;stroke:#f2f2f2;stroke-linecap:square;stroke-width:0.7;"/>
     </g>
     <g id="line2d_104">
      <g>
       <use style="fill:#7f7f7f;stroke:#7f7f7f;stroke-width:0.5;" x="550.358424343" xlink:href="#m76e11a524f" y="518.4"/>
      </g>
     </g>
    </g>
    <g id="xtick_53">
     <g id="line2d_105">
      <path clip-path="url(#peff4c6d16c)" d="M 556.629579 518.4 
L 556.629579 57.6 
" style="fill:none;stroke:#f2f2f2;stroke-linecap:square;stroke-width:0.7;"/>
     </g>
     <g id="line2d_106">
      <g>
       <use style="fill:#7f7f7f;stroke:#7f7f7f;stroke-width:0.5;" x="556.62957903" xlink:href="#m76e11a524f" y="518.4"/>
      </g>
     </g>
    </g>
    <g id="xtick_54">
     <g id="line2d_107">
      <path clip-path="url(#peff4c6d16c)" d="M 561.931765 518.4 
L 561.931765 57.6 
" style="fill:none;stroke:#f2f2f2;stroke-linecap:square;stroke-width:0.7;"/>
     </g>
     <g id="line2d_108">
      <g>
       <use style="fill:#7f7f7f;stroke:#7f7f7f;stroke-width:0.5;" x="561.931764769" xlink:href="#m76e11a524f" y="518.4"/>
      </g>
     </g>
    </g>
    <g id="xtick_55">
     <g id="line2d_109">
      <path clip-path="url(#peff4c6d16c)" d="M 566.524727 518.4 
L 566.524727 57.6 
" style="fill:none;stroke:#f2f2f2;stroke-linecap:square;stroke-width:0.7;"/>
     </g>
     <g id="line2d_110">
      <g>
       <use style="fill:#7f7f7f;stroke:#7f7f7f;stroke-width:0.5;" x="566.52472697" xlink:href="#m76e11a524f" y="518.4"/>
      </g>
     </g>
    </g>
    <g id="xtick_56">
     <g id="line2d_111">
      <path clip-path="url(#peff4c6d16c)" d="M 570.576007 518.4 
L 570.576007 57.6 
" style="fill:none;stroke:#f2f2f2;stroke-linecap:square;stroke-width:0.7;"/>
     </g>
     <g id="line2d_112">
      <g>
       <use style="fill:#7f7f7f;stroke:#7f7f7f;stroke-width:0.5;" x="570.576006748" xlink:href="#m76e11a524f" y="518.4"/>
      </g>
     </g>
    </g>
    <g id="xtick_57">
     <g id="line2d_113">
      <path clip-path="url(#peff4c6d16c)" d="M 598.041576 518.4 
L 598.041576 57.6 
" style="fill:none;stroke:#f2f2f2;stroke-linecap:square;stroke-width:0.7;"/>
     </g>
     <g id="line2d_114">
      <g>
       <use style="fill:#7f7f7f;stroke:#7f7f7f;stroke-width:0.5;" x="598.041575657" xlink:href="#m76e11a524f" y="518.4"/>
      </g>
     </g>
    </g>
    <g id="xtick_58">
     <g id="line2d_115">
      <path clip-path="url(#peff4c6d16c)" d="M 611.988003 518.4 
L 611.988003 57.6 
" style="fill:none;stroke:#f2f2f2;stroke-linecap:square;stroke-width:0.7;"/>
     </g>
     <g id="line2d_116">
      <g>
       <use style="fill:#7f7f7f;stroke:#7f7f7f;stroke-width:0.5;" x="611.988003374" xlink:href="#m76e11a524f" y="518.4"/>
      </g>
     </g>
    </g>
    <g id="xtick_59">
     <g id="line2d_117">
      <path clip-path="url(#peff4c6d16c)" d="M 621.883151 518.4 
L 621.883151 57.6 
" style="fill:none;stroke:#f2f2f2;stroke-linecap:square;stroke-width:0.7;"/>
     </g>
     <g id="line2d_118">
      <g>
       <use style="fill:#7f7f7f;stroke:#7f7f7f;stroke-width:0.5;" x="621.883151313" xlink:href="#m76e11a524f" y="518.4"/>
      </g>
     </g>
    </g>
    <g id="xtick_60">
     <g id="line2d_119">
      <path clip-path="url(#peff4c6d16c)" d="M 629.558424 518.4 
L 629.558424 57.6 
" style="fill:none;stroke:#f2f2f2;stroke-linecap:square;stroke-width:0.7;"/>
     </g>
     <g id="line2d_120">
      <g>
       <use style="fill:#7f7f7f;stroke:#7f7f7f;stroke-width:0.5;" x="629.558424343" xlink:href="#m76e11a524f" y="518.4"/>
      </g>
     </g>
    </g>
    <g id="xtick_61">
     <g id="line2d_121">
      <path clip-path="url(#peff4c6d16c)" d="M 635.829579 518.4 
L 635.829579 57.6 
" style="fill:none;stroke:#f2f2f2;stroke-linecap:square;stroke-width:0.7;"/>
     </g>
     <g id="line2d_122">
      <g>
       <use style="fill:#7f7f7f;stroke:#7f7f7f;stroke-width:0.5;" x="635.82957903" xlink:href="#m76e11a524f" y="518.4"/>
      </g>
     </g>
    </g>
    <g id="xtick_62">
     <g id="line2d_123">
      <path clip-path="url(#peff4c6d16c)" d="M 641.131765 518.4 
L 641.131765 57.6 
" style="fill:none;stroke:#f2f2f2;stroke-linecap:square;stroke-width:0.7;"/>
     </g>
     <g id="line2d_124">
      <g>
       <use style="fill:#7f7f7f;stroke:#7f7f7f;stroke-width:0.5;" x="641.131764769" xlink:href="#m76e11a524f" y="518.4"/>
      </g>
     </g>
    </g>
    <g id="xtick_63">
     <g id="line2d_125">
      <path clip-path="url(#peff4c6d16c)" d="M 645.724727 518.4 
L 645.724727 57.6 
" style="fill:none;stroke:#f2f2f2;stroke-linecap:square;stroke-width:0.7;"/>
     </g>
     <g id="line2d_126">
      <g>
       <use style="fill:#7f7f7f;stroke:#7f7f7f;stroke-width:0.5;" x="645.72472697" xlink:href="#m76e11a524f" y="518.4"/>
      </g>
     </g>
    </g>
    <g id="xtick_64">
     <g id="line2d_127">
      <path clip-path="url(#peff4c6d16c)" d="M 649.776007 518.4 
L 649.776007 57.6 
" style="fill:none;stroke:#f2f2f2;stroke-linecap:square;stroke-width:0.7;"/>
     </g>
     <g id="line2d_128">
      <g>
       <use style="fill:#7f7f7f;stroke:#7f7f7f;stroke-width:0.5;" x="649.776006748" xlink:href="#m76e11a524f" y="518.4"/>
      </g>
     </g>
    </g>
   </g>
   <g id="matplotlib.axis_2">
    <g id="ytick_1">
     <g id="line2d_129">
      <path clip-path="url(#peff4c6d16c)" d="M 99 518.4 
L 653.4 518.4 
" style="fill:none;stroke:#ffffff;stroke-linecap:square;stroke-width:1.4;"/>
     </g>
     <g id="line2d_130">
      <defs>
       <path d="M 0 0 
L -5 0 
" id="m0c873f93a5" style="stroke:#7f7f7f;stroke-width:1.4;"/>
      </defs>
      <g>
       <use style="fill:#7f7f7f;stroke:#7f7f7f;stroke-width:1.4;" x="99.0" xlink:href="#m0c873f93a5" y="518.4"/>
      </g>
     </g>
     <g id="text_9">
      <!-- 0.0 -->
      <defs>
       <path d="M 10.6875 12.40625 
L 21 12.40625 
L 21 0 
L 10.6875 0 
z
" id="BitstreamVeraSans-Roman-2e"/>
      </defs>
      <g style="fill:#7f7f7f;" transform="translate(73.91625 521.71125)scale(0.12 -0.12)">
       <use xlink:href="#BitstreamVeraSans-Roman-30"/>
       <use x="63.623046875" xlink:href="#BitstreamVeraSans-Roman-2e"/>
       <use x="95.41015625" xlink:href="#BitstreamVeraSans-Roman-30"/>
      </g>
     </g>
    </g>
    <g id="ytick_2">
     <g id="line2d_131">
      <path clip-path="url(#peff4c6d16c)" d="M 99 426.24 
L 653.4 426.24 
" style="fill:none;stroke:#ffffff;stroke-linecap:square;stroke-width:1.4;"/>
     </g>
     <g id="line2d_132">
      <g>
       <use style="fill:#7f7f7f;stroke:#7f7f7f;stroke-width:1.4;" x="99.0" xlink:href="#m0c873f93a5" y="426.24"/>
      </g>
     </g>
     <g id="text_10">
      <!-- 0.2 -->
      <g style="fill:#7f7f7f;" transform="translate(73.91625 429.55125)scale(0.12 -0.12)">
       <use xlink:href="#BitstreamVeraSans-Roman-30"/>
       <use x="63.623046875" xlink:href="#BitstreamVeraSans-Roman-2e"/>
       <use x="95.41015625" xlink:href="#BitstreamVeraSans-Roman-32"/>
      </g>
     </g>
    </g>
    <g id="ytick_3">
     <g id="line2d_133">
      <path clip-path="url(#peff4c6d16c)" d="M 99 334.08 
L 653.4 334.08 
" style="fill:none;stroke:#ffffff;stroke-linecap:square;stroke-width:1.4;"/>
     </g>
     <g id="line2d_134">
      <g>
       <use style="fill:#7f7f7f;stroke:#7f7f7f;stroke-width:1.4;" x="99.0" xlink:href="#m0c873f93a5" y="334.08"/>
      </g>
     </g>
     <g id="text_11">
      <!-- 0.4 -->
      <defs>
       <path d="M 37.796875 64.3125 
L 12.890625 25.390625 
L 37.796875 25.390625 
z
M 35.203125 72.90625 
L 47.609375 72.90625 
L 47.609375 25.390625 
L 58.015625 25.390625 
L 58.015625 17.1875 
L 47.609375 17.1875 
L 47.609375 0 
L 37.796875 0 
L 37.796875 17.1875 
L 4.890625 17.1875 
L 4.890625 26.703125 
z
" id="BitstreamVeraSans-Roman-34"/>
      </defs>
      <g style="fill:#7f7f7f;" transform="translate(73.91625 337.39125)scale(0.12 -0.12)">
       <use xlink:href="#BitstreamVeraSans-Roman-30"/>
       <use x="63.623046875" xlink:href="#BitstreamVeraSans-Roman-2e"/>
       <use x="95.41015625" xlink:href="#BitstreamVeraSans-Roman-34"/>
      </g>
     </g>
    </g>
    <g id="ytick_4">
     <g id="line2d_135">
      <path clip-path="url(#peff4c6d16c)" d="M 99 241.92 
L 653.4 241.92 
" style="fill:none;stroke:#ffffff;stroke-linecap:square;stroke-width:1.4;"/>
     </g>
     <g id="line2d_136">
      <g>
       <use style="fill:#7f7f7f;stroke:#7f7f7f;stroke-width:1.4;" x="99.0" xlink:href="#m0c873f93a5" y="241.92"/>
      </g>
     </g>
     <g id="text_12">
      <!-- 0.6 -->
      <g style="fill:#7f7f7f;" transform="translate(73.91625 245.23125)scale(0.12 -0.12)">
       <use xlink:href="#BitstreamVeraSans-Roman-30"/>
       <use x="63.623046875" xlink:href="#BitstreamVeraSans-Roman-2e"/>
       <use x="95.41015625" xlink:href="#BitstreamVeraSans-Roman-36"/>
      </g>
     </g>
    </g>
    <g id="ytick_5">
     <g id="line2d_137">
      <path clip-path="url(#peff4c6d16c)" d="M 99 149.76 
L 653.4 149.76 
" style="fill:none;stroke:#ffffff;stroke-linecap:square;stroke-width:1.4;"/>
     </g>
     <g id="line2d_138">
      <g>
       <use style="fill:#7f7f7f;stroke:#7f7f7f;stroke-width:1.4;" x="99.0" xlink:href="#m0c873f93a5" y="149.76"/>
      </g>
     </g>
     <g id="text_13">
      <!-- 0.8 -->
      <g style="fill:#7f7f7f;" transform="translate(73.91625 153.07125)scale(0.12 -0.12)">
       <use xlink:href="#BitstreamVeraSans-Roman-30"/>
       <use x="63.623046875" xlink:href="#BitstreamVeraSans-Roman-2e"/>
       <use x="95.41015625" xlink:href="#BitstreamVeraSans-Roman-38"/>
      </g>
     </g>
    </g>
    <g id="ytick_6">
     <g id="line2d_139">
      <path clip-path="url(#peff4c6d16c)" d="M 99 57.6 
L 653.4 57.6 
" style="fill:none;stroke:#ffffff;stroke-linecap:square;stroke-width:1.4;"/>
     </g>
     <g id="line2d_140">
      <g>
       <use style="fill:#7f7f7f;stroke:#7f7f7f;stroke-width:1.4;" x="99.0" xlink:href="#m0c873f93a5" y="57.6"/>
      </g>
     </g>
     <g id="text_14">
      <!-- 1.0 -->
      <g style="fill:#7f7f7f;" transform="translate(73.91625 60.91125)scale(0.12 -0.12)">
       <use xlink:href="#BitstreamVeraSans-Roman-31"/>
       <use x="63.623046875" xlink:href="#BitstreamVeraSans-Roman-2e"/>
       <use x="95.41015625" xlink:href="#BitstreamVeraSans-Roman-30"/>
      </g>
     </g>
    </g>
    <g id="ytick_7">
     <g id="line2d_141">
      <path clip-path="url(#peff4c6d16c)" d="M 99 472.32 
L 653.4 472.32 
" style="fill:none;stroke:#f2f2f2;stroke-linecap:square;stroke-width:0.7;"/>
     </g>
     <g id="line2d_142">
      <g>
       <use style="fill:#7f7f7f;stroke:#7f7f7f;stroke-width:0.5;" x="99.0" xlink:href="#m76e11a524f" y="472.32"/>
      </g>
     </g>
    </g>
    <g id="ytick_8">
     <g id="line2d_143">
      <path clip-path="url(#peff4c6d16c)" d="M 99 380.16 
L 653.4 380.16 
" style="fill:none;stroke:#f2f2f2;stroke-linecap:square;stroke-width:0.7;"/>
     </g>
     <g id="line2d_144">
      <g>
       <use style="fill:#7f7f7f;stroke:#7f7f7f;stroke-width:0.5;" x="99.0" xlink:href="#m76e11a524f" y="380.16"/>
      </g>
     </g>
    </g>
    <g id="ytick_9">
     <g id="line2d_145">
      <path clip-path="url(#peff4c6d16c)" d="M 99 288 
L 653.4 288 
" style="fill:none;stroke:#f2f2f2;stroke-linecap:square;stroke-width:0.7;"/>
     </g>
     <g id="line2d_146">
      <g>
       <use style="fill:#7f7f7f;stroke:#7f7f7f;stroke-width:0.5;" x="99.0" xlink:href="#m76e11a524f" y="288.0"/>
      </g>
     </g>
    </g>
    <g id="ytick_10">
     <g id="line2d_147">
      <path clip-path="url(#peff4c6d16c)" d="M 99 241.92 
L 653.4 241.92 
" style="fill:none;stroke:#f2f2f2;stroke-linecap:square;stroke-width:0.7;"/>
     </g>
     <g id="line2d_148">
      <g>
       <use style="fill:#7f7f7f;stroke:#7f7f7f;stroke-width:0.5;" x="99.0" xlink:href="#m76e11a524f" y="241.92"/>
      </g>
     </g>
    </g>
    <g id="ytick_11">
     <g id="line2d_149">
      <path clip-path="url(#peff4c6d16c)" d="M 99 195.84 
L 653.4 195.84 
" style="fill:none;stroke:#f2f2f2;stroke-linecap:square;stroke-width:0.7;"/>
     </g>
     <g id="line2d_150">
      <g>
       <use style="fill:#7f7f7f;stroke:#7f7f7f;stroke-width:0.5;" x="99.0" xlink:href="#m76e11a524f" y="195.84"/>
      </g>
     </g>
    </g>
    <g id="ytick_12">
     <g id="line2d_151">
      <path clip-path="url(#peff4c6d16c)" d="M 99 103.68 
L 653.4 103.68 
" style="fill:none;stroke:#f2f2f2;stroke-linecap:square;stroke-width:0.7;"/>
     </g>
     <g id="line2d_152">
      <g>
       <use style="fill:#7f7f7f;stroke:#7f7f7f;stroke-width:0.5;" x="99.0" xlink:href="#m76e11a524f" y="103.68"/>
      </g>
     </g>
    </g>
   </g>
   <g id="line2d_153">
    <path clip-path="url(#peff4c6d16c)" d="M 126.629936 518.395878 
L 131.429936 518.4 
L 136.229936 518.4 
L 141.029936 518.4 
L 145.829936 518.4 
L 150.629936 518.4 
L 155.429936 518.4 
L 160.229936 518.4 
L 165.029936 518.4 
L 169.829936 518.4 
L 174.629936 518.4 
L 179.429936 518.4 
L 184.229936 518.4 
L 189.029936 518.35392 
L 193.829936 518.35392 
L 198.629936 518.35392 
L 203.429936 518.35392 
L 208.229936 518.35392 
L 213.029936 518.35392 
L 217.829936 518.35392 
L 222.629936 518.35392 
L 227.429936 518.30784 
L 232.229936 518.30784 
L 237.029936 518.30784 
L 241.829936 518.26176 
L 246.629936 518.26176 
L 251.429936 518.26176 
L 256.229936 518.21568 
L 261.029936 518.21568 
L 265.829936 518.1696 
L 270.629936 518.12352 
L 275.429936 518.07744 
L 280.229936 518.03136 
L 285.029936 517.98528 
L 289.829936 517.9392 
L 294.629936 517.84704 
L 299.429936 517.75488 
L 304.229936 517.66272 
L 309.029936 517.57056 
L 313.829936 517.43232 
L 318.629936 517.248 
L 323.429936 517.06368 
L 328.229936 516.74112 
L 333.029936 516.3264 
L 337.829936 515.68128 
L 342.629936 514.57536 
L 347.429936 512.8704 
L 352.229936 510.19776 
L 357.029936 506.09664 
L 361.829936 500.15232 
L 366.629936 491.81184 
L 371.429936 480.70656 
L 376.229936 466.65216 
L 381.029936 449.64864 
L 385.829936 430.1568 
L 390.629936 408.7296 
L 395.429936 386.24256 
L 400.229936 363.61728 
L 405.029936 341.6832 
L 409.829936 321.22368 
L 414.629936 302.60736 
L 419.429936 285.97248 
L 424.229936 271.13472 
L 429.029936 257.77152 
L 433.829936 245.23776 
L 438.629936 233.07264 
L 443.429936 220.63104 
L 448.229936 213.71904 
L 453.029936 206.57664 
L 457.829936 199.24992 
L 462.629936 191.60064 
L 467.429936 183.81312 
L 472.229936 176.07168 
L 477.029936 168.60672 
L 481.829936 161.55648 
L 486.629936 155.0592 
L 491.429936 149.25312 
L 496.229936 144.09216 
L 501.029936 139.66848 
L 505.829936 135.84384 
L 510.629936 132.66432 
L 515.429936 129.99168 
L 520.229936 127.82592 
L 525.029936 126.0288 
L 529.829936 124.60032 
L 534.629936 123.44832 
L 539.429936 122.52672 
L 544.229936 121.78944 
L 549.029936 121.1904 
L 553.829936 120.63744 
L 558.629936 120.13056 
L 563.429936 119.5776 
L 568.229936 118.8864 
L 573.029936 118.01088 
L 577.829936 116.8128 
L 582.629936 115.2 
L 587.429936 113.1264 
L 592.229936 110.592 
L 597.029936 107.55072 
L 601.829936 104.00256 
" style="fill:none;stroke:#f7746a;stroke-linecap:square;"/>
   </g>
   <g id="line2d_154">
    <path clip-path="url(#peff4c6d16c)" d="M 443.429936 518.4 
L 443.429936 57.6 
" style="fill:none;stroke:#000000;stroke-linecap:square;"/>
   </g>
   <g id="line2d_155">
    <path clip-path="url(#peff4c6d16c)" d="M 205.829936 518.4 
L 218.335202 518.399996 
L 230.840461 518.399945 
L 243.34572 518.399743 
L 255.850985 518.399133 
L 268.356251 518.397267 
L 280.861515 518.392673 
L 293.366778 518.376883 
L 305.872041 518.318956 
L 318.377304 518.133993 
L 330.882568 517.711273 
L 343.387831 516.989545 
L 355.893094 515.604765 
L 368.398357 512.527805 
L 380.90362 506.643049 
L 393.408883 497.82674 
L 405.914146 487.740613 
L 418.41941 478.145978 
L 430.924673 468.381623 
L 443.429936 455.390261 
" style="fill:none;stroke:#f7746a;stroke-dasharray:6.000000,6.000000;stroke-dashoffset:0.0;"/>
   </g>
   <g id="line2d_156">
    <path clip-path="url(#peff4c6d16c)" d="M 443.429936 518.4 
L 443.429936 57.6 
" style="fill:none;stroke:#000000;stroke-dasharray:6.000000,6.000000;stroke-dashoffset:0.0;"/>
   </g>
   <g id="line2d_157">
    <path clip-path="url(#peff4c6d16c)" d="M 126.629936 518.4 
L 131.429936 518.4 
L 136.229936 518.4 
L 141.029936 518.4 
L 145.829936 518.4 
L 150.629936 518.4 
L 155.429936 518.4 
L 160.229936 518.35392 
L 165.029936 518.35392 
L 169.829936 518.35392 
L 174.629936 518.35392 
L 179.429936 518.30784 
L 184.229936 518.30784 
L 189.029936 518.30784 
L 193.829936 518.26176 
L 198.629936 518.21568 
L 203.429936 518.1696 
L 208.229936 518.07744 
L 213.029936 517.98528 
L 217.829936 517.89312 
L 222.629936 517.7088 
L 227.429936 517.52448 
L 232.229936 517.29408 
L 237.029936 516.92544 
L 241.829936 516.51072 
L 246.629936 515.95776 
L 251.429936 515.26656 
L 256.229936 514.39104 
L 261.029936 513.23904 
L 265.829936 511.81056 
L 270.629936 510.01344 
L 275.429936 507.75552 
L 280.229936 504.94464 
L 285.029936 501.48864 
L 289.829936 497.24928 
L 294.629936 492.1344 
L 299.429936 486.00576 
L 304.229936 478.72512 
L 309.029936 470.29248 
L 313.829936 460.52352 
L 318.629936 449.46432 
L 323.429936 437.16096 
L 328.229936 423.65952 
L 333.029936 409.1904 
L 337.829936 393.93792 
L 342.629936 378.13248 
L 347.429936 362.1888 
L 352.229936 346.33728 
L 357.029936 330.90048 
L 361.829936 316.1088 
L 366.629936 302.23872 
L 371.429936 289.29024 
L 376.229936 277.30944 
L 381.029936 266.20416 
L 385.829936 255.92832 
L 390.629936 246.2976 
L 395.429936 237.0816 
L 400.229936 228.14208 
L 405.029936 219.3408 
L 409.829936 210.53952 
L 414.629936 201.64608 
L 419.429936 192.66048 
L 424.229936 183.53664 
L 429.029936 174.22848 
L 433.829936 164.736 
L 438.629936 155.0592 
L 443.429936 145.05984 
L 448.229936 140.91264 
L 453.029936 137.22624 
L 457.829936 134.00064 
L 462.629936 131.18976 
L 467.429936 128.74752 
L 472.229936 126.62784 
L 477.029936 124.83072 
L 481.829936 123.21792 
L 486.629936 121.78944 
L 491.429936 120.4992 
L 496.229936 119.25504 
L 501.029936 118.05696 
L 505.829936 116.76672 
L 510.629936 115.4304 
L 515.429936 113.95584 
L 520.229936 112.34304 
L 525.029936 110.54592 
L 529.829936 108.47232 
L 534.629936 106.2144 
L 539.429936 103.72608 
L 544.229936 101.00736 
L 549.029936 98.10432 
L 553.829936 95.06304 
L 558.629936 91.88352 
L 563.429936 88.61184 
L 568.229936 85.38624 
L 573.029936 82.20672 
L 577.829936 79.16544 
L 582.629936 76.2624 
L 587.429936 73.58976 
L 592.229936 71.1936 
L 597.029936 68.98176 
L 601.829936 67.09248 
" style="fill:none;stroke:#32b25a;stroke-linecap:square;"/>
   </g>
   <g id="line2d_158">
    <path clip-path="url(#peff4c6d16c)" d="M 443.429936 518.4 
L 443.429936 57.6 
" style="fill:none;stroke:#000000;stroke-linecap:square;"/>
   </g>
   <g id="line2d_159">
    <path clip-path="url(#peff4c6d16c)" d="M 205.829936 518.374244 
L 218.335202 518.346868 
L 230.840461 518.297655 
L 243.34572 518.195237 
L 255.850985 517.999429 
L 268.356251 517.627505 
L 280.861515 516.946307 
L 293.366778 515.778511 
L 305.872041 513.810247 
L 318.377304 510.622127 
L 330.882568 505.741618 
L 343.387831 498.778756 
L 355.893094 489.792327 
L 368.398357 479.006995 
L 380.90362 466.738661 
L 393.408883 452.167604 
L 405.914146 433.727469 
L 418.41941 410.013612 
L 430.924673 381.409488 
L 443.429936 350.113263 
" style="fill:none;stroke:#32b25a;stroke-dasharray:6.000000,6.000000;stroke-dashoffset:0.0;"/>
   </g>
   <g id="line2d_160">
    <path clip-path="url(#peff4c6d16c)" d="M 443.429936 518.4 
L 443.429936 57.6 
" style="fill:none;stroke:#000000;stroke-dasharray:6.000000,6.000000;stroke-dashoffset:0.0;"/>
   </g>
   <g id="line2d_161">
    <path clip-path="url(#peff4c6d16c)" d="M 126.629936 518.395878 
L 131.429936 518.4 
L 136.229936 518.4 
L 141.029936 518.4 
L 145.829936 518.4 
L 150.629936 518.4 
L 155.429936 518.4 
L 160.229936 518.4 
L 165.029936 518.4 
L 169.829936 518.4 
L 174.629936 518.4 
L 179.429936 518.4 
L 184.229936 518.4 
L 189.029936 518.35392 
L 193.829936 518.35392 
L 198.629936 518.35392 
L 203.429936 518.35392 
L 208.229936 518.35392 
L 213.029936 518.35392 
L 217.829936 518.35392 
L 222.629936 518.35392 
L 227.429936 518.30784 
L 232.229936 518.30784 
L 237.029936 518.30784 
L 241.829936 518.26176 
L 246.629936 518.26176 
L 251.429936 518.21568 
L 256.229936 518.21568 
L 261.029936 518.1696 
L 265.829936 518.07744 
L 270.629936 518.03136 
L 275.429936 517.89312 
L 280.229936 517.7088 
L 285.029936 517.4784 
L 289.829936 517.10976 
L 294.629936 516.60288 
L 299.429936 515.81952 
L 304.229936 514.7136 
L 309.029936 513.1008 
L 313.829936 510.84288 
L 318.629936 507.70944 
L 323.429936 503.424 
L 328.229936 497.75616 
L 333.029936 490.47552 
L 337.829936 481.3056 
L 342.629936 470.10816 
L 347.429936 456.8832 
L 352.229936 441.6768 
L 357.029936 424.81152 
L 361.829936 406.656 
L 366.629936 387.7632 
L 371.429936 368.64 
L 376.229936 349.9776 
L 381.029936 332.14464 
L 385.829936 315.50976 
L 390.629936 300.34944 
L 395.429936 286.6176 
L 400.229936 274.22208 
L 405.029936 262.84032 
L 409.829936 252.24192 
L 414.629936 241.96608 
L 419.429936 231.7824 
L 424.229936 221.4144 
L 429.029936 210.67776 
L 433.829936 199.38816 
L 438.629936 187.5456 
L 443.429936 175.104 
L 448.229936 168.23808 
L 453.029936 161.7408 
L 457.829936 155.65824 
L 462.629936 150.08256 
L 467.429936 145.10592 
L 472.229936 140.72832 
L 477.029936 136.90368 
L 481.829936 133.632 
L 486.629936 130.91328 
L 491.429936 128.60928 
L 496.229936 126.67392 
L 501.029936 125.1072 
L 505.829936 123.81696 
L 510.629936 122.71104 
L 515.429936 121.78944 
L 520.229936 120.96 
L 525.029936 120.17664 
L 529.829936 119.3472 
L 534.629936 118.4256 
L 539.429936 117.41184 
L 544.229936 116.16768 
L 549.029936 114.64704 
L 553.829936 112.80384 
L 558.629936 110.592 
L 563.429936 108.0576 
L 568.229936 105.15456 
L 573.029936 101.88288 
L 577.829936 98.3808 
L 582.629936 94.6944 
L 587.429936 90.91584 
L 592.229936 87.13728 
L 597.029936 83.45088 
L 601.829936 79.9488 
" style="fill:none;stroke:#6c9bf4;stroke-linecap:square;"/>
   </g>
   <g id="line2d_162">
    <path clip-path="url(#peff4c6d16c)" d="M 443.429936 518.4 
L 443.429936 57.6 
" style="fill:none;stroke:#000000;stroke-linecap:square;"/>
   </g>
   <g id="line2d_163">
    <path clip-path="url(#peff4c6d16c)" d="M 205.829936 518.399433 
L 218.335202 518.39835 
L 230.840461 518.395281 
L 243.34572 518.387353 
L 255.850985 518.366628 
L 268.356251 518.313698 
L 280.861515 518.186864 
L 293.366778 517.91086 
L 305.872041 517.342027 
L 318.377304 516.266643 
L 330.882568 514.298436 
L 343.387831 510.793483 
L 355.893094 505.009074 
L 368.398357 496.797354 
L 380.90362 487.063778 
L 393.408883 476.607824 
L 405.914146 464.986224 
L 418.41941 450.015099 
L 430.924673 428.973467 
L 443.429936 400.746622 
" style="fill:none;stroke:#6c9bf4;stroke-dasharray:6.000000,6.000000;stroke-dashoffset:0.0;"/>
   </g>
   <g id="line2d_164">
    <path clip-path="url(#peff4c6d16c)" d="M 443.429936 518.4 
L 443.429936 57.6 
" style="fill:none;stroke:#000000;stroke-dasharray:6.000000,6.000000;stroke-dashoffset:0.0;"/>
   </g>
   <g id="patch_3">
    <path d="M 99 57.6 
L 653.4 57.6 
" style="fill:none;opacity:0;"/>
   </g>
   <g id="patch_4">
    <path d="M 653.4 518.4 
L 653.4 57.6 
" style="fill:none;opacity:0;"/>
   </g>
   <g id="patch_5">
    <path d="M 99 518.4 
L 653.4 518.4 
" style="fill:none;opacity:0;"/>
   </g>
   <g id="patch_6">
    <path d="M 99 518.4 
L 99 57.6 
" style="fill:none;opacity:0;"/>
   </g>
   <g id="legend_1">
    <g id="patch_7">
     <path d="M 690.1164 241.144843 
L 710.1084 241.144843 
L 710.1084 234.147643 
L 690.1164 234.147643 
L 690.1164 241.144843 
z
" style="fill:none;"/>
    </g>
    <g id="text_15">
     <!-- factor(CoverageDepth) -->
     <defs>
      <path d="M 8.015625 75.875 
L 15.828125 75.875 
Q 23.140625 64.359375 26.78125 53.3125 
Q 30.421875 42.28125 30.421875 31.390625 
Q 30.421875 20.453125 26.78125 9.375 
Q 23.140625 -1.703125 15.828125 -13.1875 
L 8.015625 -13.1875 
Q 14.5 -2 17.703125 9.0625 
Q 20.90625 20.125 20.90625 31.390625 
Q 20.90625 42.671875 17.703125 53.65625 
Q 14.5 64.65625 8.015625 75.875 
" id="BitstreamVeraSans-Roman-29"/>
      <path d="M 34.28125 27.484375 
Q 23.390625 27.484375 19.1875 25 
Q 14.984375 22.515625 14.984375 16.5 
Q 14.984375 11.71875 18.140625 8.90625 
Q 21.296875 6.109375 26.703125 6.109375 
Q 34.1875 6.109375 38.703125 11.40625 
Q 43.21875 16.703125 43.21875 25.484375 
L 43.21875 27.484375 
z
M 52.203125 31.203125 
L 52.203125 0 
L 43.21875 0 
L 43.21875 8.296875 
Q 40.140625 3.328125 35.546875 0.953125 
Q 30.953125 -1.421875 24.3125 -1.421875 
Q 15.921875 -1.421875 10.953125 3.296875 
Q 6 8.015625 6 15.921875 
Q 6 25.140625 12.171875 29.828125 
Q 18.359375 34.515625 30.609375 34.515625 
L 43.21875 34.515625 
L 43.21875 35.40625 
Q 43.21875 41.609375 39.140625 45 
Q 35.0625 48.390625 27.6875 48.390625 
Q 23 48.390625 18.546875 47.265625 
Q 14.109375 46.140625 10.015625 43.890625 
L 10.015625 52.203125 
Q 14.9375 54.109375 19.578125 55.046875 
Q 24.21875 56 28.609375 56 
Q 40.484375 56 46.34375 49.84375 
Q 52.203125 43.703125 52.203125 31.203125 
" id="BitstreamVeraSans-Roman-61"/>
      <path d="M 30.609375 48.390625 
Q 23.390625 48.390625 19.1875 42.75 
Q 14.984375 37.109375 14.984375 27.296875 
Q 14.984375 17.484375 19.15625 11.84375 
Q 23.34375 6.203125 30.609375 6.203125 
Q 37.796875 6.203125 41.984375 11.859375 
Q 46.1875 17.53125 46.1875 27.296875 
Q 46.1875 37.015625 41.984375 42.703125 
Q 37.796875 48.390625 30.609375 48.390625 
M 30.609375 56 
Q 42.328125 56 49.015625 48.375 
Q 55.71875 40.765625 55.71875 27.296875 
Q 55.71875 13.875 49.015625 6.21875 
Q 42.328125 -1.421875 30.609375 -1.421875 
Q 18.84375 -1.421875 12.171875 6.21875 
Q 5.515625 13.875 5.515625 27.296875 
Q 5.515625 40.765625 12.171875 48.375 
Q 18.84375 56 30.609375 56 
" id="BitstreamVeraSans-Roman-6f"/>
      <path d="M 56.203125 29.59375 
L 56.203125 25.203125 
L 14.890625 25.203125 
Q 15.484375 15.921875 20.484375 11.0625 
Q 25.484375 6.203125 34.421875 6.203125 
Q 39.59375 6.203125 44.453125 7.46875 
Q 49.3125 8.734375 54.109375 11.28125 
L 54.109375 2.78125 
Q 49.265625 0.734375 44.1875 -0.34375 
Q 39.109375 -1.421875 33.890625 -1.421875 
Q 20.796875 -1.421875 13.15625 6.1875 
Q 5.515625 13.8125 5.515625 26.8125 
Q 5.515625 40.234375 12.765625 48.109375 
Q 20.015625 56 32.328125 56 
Q 43.359375 56 49.78125 48.890625 
Q 56.203125 41.796875 56.203125 29.59375 
M 47.21875 32.234375 
Q 47.125 39.59375 43.09375 43.984375 
Q 39.0625 48.390625 32.421875 48.390625 
Q 24.90625 48.390625 20.390625 44.140625 
Q 15.875 39.890625 15.1875 32.171875 
z
" id="BitstreamVeraSans-Roman-65"/>
      <path d="M 19.671875 64.796875 
L 19.671875 8.109375 
L 31.59375 8.109375 
Q 46.6875 8.109375 53.6875 14.9375 
Q 60.6875 21.78125 60.6875 36.53125 
Q 60.6875 51.171875 53.6875 57.984375 
Q 46.6875 64.796875 31.59375 64.796875 
z
M 9.8125 72.90625 
L 30.078125 72.90625 
Q 51.265625 72.90625 61.171875 64.09375 
Q 71.09375 55.28125 71.09375 36.53125 
Q 71.09375 17.671875 61.125 8.828125 
Q 51.171875 0 30.078125 0 
L 9.8125 0 
z
" id="BitstreamVeraSans-Roman-44"/>
      <path d="M 64.40625 67.28125 
L 64.40625 56.890625 
Q 59.421875 61.53125 53.78125 63.8125 
Q 48.140625 66.109375 41.796875 66.109375 
Q 29.296875 66.109375 22.65625 58.46875 
Q 16.015625 50.828125 16.015625 36.375 
Q 16.015625 21.96875 22.65625 14.328125 
Q 29.296875 6.6875 41.796875 6.6875 
Q 48.140625 6.6875 53.78125 8.984375 
Q 59.421875 11.28125 64.40625 15.921875 
L 64.40625 5.609375 
Q 59.234375 2.09375 53.4375 0.328125 
Q 47.65625 -1.421875 41.21875 -1.421875 
Q 24.65625 -1.421875 15.125 8.703125 
Q 5.609375 18.84375 5.609375 36.375 
Q 5.609375 53.953125 15.125 64.078125 
Q 24.65625 74.21875 41.21875 74.21875 
Q 47.75 74.21875 53.53125 72.484375 
Q 59.328125 70.75 64.40625 67.28125 
" id="BitstreamVeraSans-Roman-43"/>
      <path d="M 18.109375 8.203125 
L 18.109375 -20.796875 
L 9.078125 -20.796875 
L 9.078125 54.6875 
L 18.109375 54.6875 
L 18.109375 46.390625 
Q 20.953125 51.265625 25.265625 53.625 
Q 29.59375 56 35.59375 56 
Q 45.5625 56 51.78125 48.09375 
Q 58.015625 40.1875 58.015625 27.296875 
Q 58.015625 14.40625 51.78125 6.484375 
Q 45.5625 -1.421875 35.59375 -1.421875 
Q 29.59375 -1.421875 25.265625 0.953125 
Q 20.953125 3.328125 18.109375 8.203125 
M 48.6875 27.296875 
Q 48.6875 37.203125 44.609375 42.84375 
Q 40.53125 48.484375 33.40625 48.484375 
Q 26.265625 48.484375 22.1875 42.84375 
Q 18.109375 37.203125 18.109375 27.296875 
Q 18.109375 17.390625 22.1875 11.75 
Q 26.265625 6.109375 33.40625 6.109375 
Q 40.53125 6.109375 44.609375 11.75 
Q 48.6875 17.390625 48.6875 27.296875 
" id="BitstreamVeraSans-Roman-70"/>
      <path d="M 31 75.875 
Q 24.46875 64.65625 21.28125 53.65625 
Q 18.109375 42.671875 18.109375 31.390625 
Q 18.109375 20.125 21.3125 9.0625 
Q 24.515625 -2 31 -13.1875 
L 23.1875 -13.1875 
Q 15.875 -1.703125 12.234375 9.375 
Q 8.59375 20.453125 8.59375 31.390625 
Q 8.59375 42.28125 12.203125 53.3125 
Q 15.828125 64.359375 23.1875 75.875 
z
" id="BitstreamVeraSans-Roman-28"/>
      <path d="M 2.984375 54.6875 
L 12.5 54.6875 
L 29.59375 8.796875 
L 46.6875 54.6875 
L 56.203125 54.6875 
L 35.6875 0 
L 23.484375 0 
z
" id="BitstreamVeraSans-Roman-76"/>
      <path d="M 18.3125 70.21875 
L 18.3125 54.6875 
L 36.8125 54.6875 
L 36.8125 47.703125 
L 18.3125 47.703125 
L 18.3125 18.015625 
Q 18.3125 11.328125 20.140625 9.421875 
Q 21.96875 7.515625 27.59375 7.515625 
L 36.8125 7.515625 
L 36.8125 0 
L 27.59375 0 
Q 17.1875 0 13.234375 3.875 
Q 9.28125 7.765625 9.28125 18.015625 
L 9.28125 47.703125 
L 2.6875 47.703125 
L 2.6875 54.6875 
L 9.28125 54.6875 
L 9.28125 70.21875 
z
" id="BitstreamVeraSans-Roman-74"/>
      <path d="M 37.109375 75.984375 
L 37.109375 68.5 
L 28.515625 68.5 
Q 23.6875 68.5 21.796875 66.546875 
Q 19.921875 64.59375 19.921875 59.515625 
L 19.921875 54.6875 
L 34.71875 54.6875 
L 34.71875 47.703125 
L 19.921875 47.703125 
L 19.921875 0 
L 10.890625 0 
L 10.890625 47.703125 
L 2.296875 47.703125 
L 2.296875 54.6875 
L 10.890625 54.6875 
L 10.890625 58.5 
Q 10.890625 67.625 15.140625 71.796875 
Q 19.390625 75.984375 28.609375 75.984375 
z
" id="BitstreamVeraSans-Roman-66"/>
      <path d="M 41.109375 46.296875 
Q 39.59375 47.171875 37.8125 47.578125 
Q 36.03125 48 33.890625 48 
Q 26.265625 48 22.1875 43.046875 
Q 18.109375 38.09375 18.109375 28.8125 
L 18.109375 0 
L 9.078125 0 
L 9.078125 54.6875 
L 18.109375 54.6875 
L 18.109375 46.1875 
Q 20.953125 51.171875 25.484375 53.578125 
Q 30.03125 56 36.53125 56 
Q 37.453125 56 38.578125 55.875 
Q 39.703125 55.765625 41.0625 55.515625 
z
" id="BitstreamVeraSans-Roman-72"/>
      <path d="M 45.40625 27.984375 
Q 45.40625 37.75 41.375 43.109375 
Q 37.359375 48.484375 30.078125 48.484375 
Q 22.859375 48.484375 18.828125 43.109375 
Q 14.796875 37.75 14.796875 27.984375 
Q 14.796875 18.265625 18.828125 12.890625 
Q 22.859375 7.515625 30.078125 7.515625 
Q 37.359375 7.515625 41.375 12.890625 
Q 45.40625 18.265625 45.40625 27.984375 
M 54.390625 6.78125 
Q 54.390625 -7.171875 48.1875 -13.984375 
Q 42 -20.796875 29.203125 -20.796875 
Q 24.46875 -20.796875 20.265625 -20.09375 
Q 16.0625 -19.390625 12.109375 -17.921875 
L 12.109375 -9.1875 
Q 16.0625 -11.328125 19.921875 -12.34375 
Q 23.78125 -13.375 27.78125 -13.375 
Q 36.625 -13.375 41.015625 -8.765625 
Q 45.40625 -4.15625 45.40625 5.171875 
L 45.40625 9.625 
Q 42.625 4.78125 38.28125 2.390625 
Q 33.9375 0 27.875 0 
Q 17.828125 0 11.671875 7.65625 
Q 5.515625 15.328125 5.515625 27.984375 
Q 5.515625 40.671875 11.671875 48.328125 
Q 17.828125 56 27.875 56 
Q 33.9375 56 38.28125 53.609375 
Q 42.625 51.21875 45.40625 46.390625 
L 45.40625 54.6875 
L 54.390625 54.6875 
z
" id="BitstreamVeraSans-Roman-67"/>
      <path d="M 48.78125 52.59375 
L 48.78125 44.1875 
Q 44.96875 46.296875 41.140625 47.34375 
Q 37.3125 48.390625 33.40625 48.390625 
Q 24.65625 48.390625 19.8125 42.84375 
Q 14.984375 37.3125 14.984375 27.296875 
Q 14.984375 17.28125 19.8125 11.734375 
Q 24.65625 6.203125 33.40625 6.203125 
Q 37.3125 6.203125 41.140625 7.25 
Q 44.96875 8.296875 48.78125 10.40625 
L 48.78125 2.09375 
Q 45.015625 0.34375 40.984375 -0.53125 
Q 36.96875 -1.421875 32.421875 -1.421875 
Q 20.0625 -1.421875 12.78125 6.34375 
Q 5.515625 14.109375 5.515625 27.296875 
Q 5.515625 40.671875 12.859375 48.328125 
Q 20.21875 56 33.015625 56 
Q 37.15625 56 41.109375 55.140625 
Q 45.0625 54.296875 48.78125 52.59375 
" id="BitstreamVeraSans-Roman-63"/>
      <path d="M 54.890625 33.015625 
L 54.890625 0 
L 45.90625 0 
L 45.90625 32.71875 
Q 45.90625 40.484375 42.875 44.328125 
Q 39.84375 48.1875 33.796875 48.1875 
Q 26.515625 48.1875 22.3125 43.546875 
Q 18.109375 38.921875 18.109375 30.90625 
L 18.109375 0 
L 9.078125 0 
L 9.078125 75.984375 
L 18.109375 75.984375 
L 18.109375 46.1875 
Q 21.34375 51.125 25.703125 53.5625 
Q 30.078125 56 35.796875 56 
Q 45.21875 56 50.046875 50.171875 
Q 54.890625 44.34375 54.890625 33.015625 
" id="BitstreamVeraSans-Roman-68"/>
     </defs>
     <g transform="translate(718.1052 241.144843313)scale(0.09996 -0.09996)">
      <use xlink:href="#BitstreamVeraSans-Roman-66"/>
      <use x="35.205078125" xlink:href="#BitstreamVeraSans-Roman-61"/>
      <use x="96.484375" xlink:href="#BitstreamVeraSans-Roman-63"/>
      <use x="151.46484375" xlink:href="#BitstreamVeraSans-Roman-74"/>
      <use x="190.673828125" xlink:href="#BitstreamVeraSans-Roman-6f"/>
      <use x="251.85546875" xlink:href="#BitstreamVeraSans-Roman-72"/>
      <use x="292.96875" xlink:href="#BitstreamVeraSans-Roman-28"/>
      <use x="331.982421875" xlink:href="#BitstreamVeraSans-Roman-43"/>
      <use x="401.806640625" xlink:href="#BitstreamVeraSans-Roman-6f"/>
      <use x="462.98828125" xlink:href="#BitstreamVeraSans-Roman-76"/>
      <use x="522.16796875" xlink:href="#BitstreamVeraSans-Roman-65"/>
      <use x="583.69140625" xlink:href="#BitstreamVeraSans-Roman-72"/>
      <use x="624.8046875" xlink:href="#BitstreamVeraSans-Roman-61"/>
      <use x="686.083984375" xlink:href="#BitstreamVeraSans-Roman-67"/>
      <use x="749.560546875" xlink:href="#BitstreamVeraSans-Roman-65"/>
      <use x="811.083984375" xlink:href="#BitstreamVeraSans-Roman-44"/>
      <use x="888.0859375" xlink:href="#BitstreamVeraSans-Roman-65"/>
      <use x="949.609375" xlink:href="#BitstreamVeraSans-Roman-70"/>
      <use x="1013.0859375" xlink:href="#BitstreamVeraSans-Roman-74"/>
      <use x="1052.29492188" xlink:href="#BitstreamVeraSans-Roman-68"/>
      <use x="1115.67382812" xlink:href="#BitstreamVeraSans-Roman-29"/>
     </g>
    </g>
    <g id="line2d_165">
     <path d="M 693.1152 252.318497 
L 707.1096 252.318497 
" style="fill:none;stroke:#f7746a;stroke-linecap:square;stroke-width:5.0;"/>
    </g>
    <g id="line2d_166"/>
    <g id="text_16">
     <!-- 10 -->
     <g transform="translate(718.1052 255.817097063)scale(0.09996 -0.09996)">
      <use xlink:href="#BitstreamVeraSans-Roman-31"/>
      <use x="63.623046875" xlink:href="#BitstreamVeraSans-Roman-30"/>
     </g>
    </g>
    <g id="line2d_167">
     <path d="M 693.1152 266.990751 
L 707.1096 266.990751 
" style="fill:none;stroke:#32b25a;stroke-linecap:square;stroke-width:5.0;"/>
    </g>
    <g id="line2d_168"/>
    <g id="text_17">
     <!-- 3 -->
     <g transform="translate(718.1052 270.489350813)scale(0.09996 -0.09996)">
      <use xlink:href="#BitstreamVeraSans-Roman-33"/>
     </g>
    </g>
    <g id="line2d_169">
     <path d="M 693.1152 281.663005 
L 707.1096 281.663005 
" style="fill:none;stroke:#6c9bf4;stroke-linecap:square;stroke-width:5.0;"/>
    </g>
    <g id="line2d_170"/>
    <g id="text_18">
     <!-- 5 -->
     <defs>
      <path d="M 10.796875 72.90625 
L 49.515625 72.90625 
L 49.515625 64.59375 
L 19.828125 64.59375 
L 19.828125 46.734375 
Q 21.96875 47.46875 24.109375 47.828125 
Q 26.265625 48.1875 28.421875 48.1875 
Q 40.625 48.1875 47.75 41.5 
Q 54.890625 34.8125 54.890625 23.390625 
Q 54.890625 11.625 47.5625 5.09375 
Q 40.234375 -1.421875 26.90625 -1.421875 
Q 22.3125 -1.421875 17.546875 -0.640625 
Q 12.796875 0.140625 7.71875 1.703125 
L 7.71875 11.625 
Q 12.109375 9.234375 16.796875 8.0625 
Q 21.484375 6.890625 26.703125 6.890625 
Q 35.15625 6.890625 40.078125 11.328125 
Q 45.015625 15.765625 45.015625 23.390625 
Q 45.015625 31 40.078125 35.4375 
Q 35.15625 39.890625 26.703125 39.890625 
Q 22.75 39.890625 18.8125 39.015625 
Q 14.890625 38.140625 10.796875 36.28125 
z
" id="BitstreamVeraSans-Roman-35"/>
     </defs>
     <g transform="translate(718.1052 285.161604563)scale(0.09996 -0.09996)">
      <use xlink:href="#BitstreamVeraSans-Roman-35"/>
     </g>
    </g>
    <g id="patch_8">
     <path d="M 690.1164 306.469953 
L 710.1084 306.469953 
L 710.1084 299.472753 
L 690.1164 299.472753 
L 690.1164 306.469953 
z
" style="fill:none;"/>
    </g>
    <g id="text_19">
     <!--  -->
     <g transform="translate(718.1052 299.833858313)scale(0.09996 -0.09996)"/>
     <!-- Type -->
     <defs>
      <path d="M -0.296875 72.90625 
L 61.375 72.90625 
L 61.375 64.59375 
L 35.5 64.59375 
L 35.5 0 
L 25.59375 0 
L 25.59375 64.59375 
L -0.296875 64.59375 
z
" id="BitstreamVeraSans-Roman-54"/>
      <path d="M 32.171875 -5.078125 
Q 28.375 -14.84375 24.75 -17.8125 
Q 21.140625 -20.796875 15.09375 -20.796875 
L 7.90625 -20.796875 
L 7.90625 -13.28125 
L 13.1875 -13.28125 
Q 16.890625 -13.28125 18.9375 -11.515625 
Q 21 -9.765625 23.484375 -3.21875 
L 25.09375 0.875 
L 2.984375 54.6875 
L 12.5 54.6875 
L 29.59375 11.921875 
L 46.6875 54.6875 
L 56.203125 54.6875 
z
" id="BitstreamVeraSans-Roman-79"/>
     </defs>
     <g transform="translate(718.1052 311.027191688)scale(0.09996 -0.09996)">
      <use xlink:href="#BitstreamVeraSans-Roman-54"/>
      <use x="60.849609375" xlink:href="#BitstreamVeraSans-Roman-79"/>
      <use x="120.029296875" xlink:href="#BitstreamVeraSans-Roman-70"/>
      <use x="183.505859375" xlink:href="#BitstreamVeraSans-Roman-65"/>
     </g>
    </g>
    <g id="line2d_171">
     <path d="M 693.1152 322.200845 
L 707.1096 322.200845 
" style="fill:none;stroke:#000000;stroke-linecap:square;"/>
    </g>
    <g id="line2d_172"/>
    <g id="text_20">
     <!-- PreseqR -->
     <defs>
      <path d="M 19.671875 64.796875 
L 19.671875 37.40625 
L 32.078125 37.40625 
Q 38.96875 37.40625 42.71875 40.96875 
Q 46.484375 44.53125 46.484375 51.125 
Q 46.484375 57.671875 42.71875 61.234375 
Q 38.96875 64.796875 32.078125 64.796875 
z
M 9.8125 72.90625 
L 32.078125 72.90625 
Q 44.34375 72.90625 50.609375 67.359375 
Q 56.890625 61.8125 56.890625 51.125 
Q 56.890625 40.328125 50.609375 34.8125 
Q 44.34375 29.296875 32.078125 29.296875 
L 19.671875 29.296875 
L 19.671875 0 
L 9.8125 0 
z
" id="BitstreamVeraSans-Roman-50"/>
      <path d="M 44.390625 34.1875 
Q 47.5625 33.109375 50.5625 29.59375 
Q 53.5625 26.078125 56.59375 19.921875 
L 66.609375 0 
L 56 0 
L 46.6875 18.703125 
Q 43.0625 26.03125 39.671875 28.421875 
Q 36.28125 30.8125 30.421875 30.8125 
L 19.671875 30.8125 
L 19.671875 0 
L 9.8125 0 
L 9.8125 72.90625 
L 32.078125 72.90625 
Q 44.578125 72.90625 50.734375 67.671875 
Q 56.890625 62.453125 56.890625 51.90625 
Q 56.890625 45.015625 53.6875 40.46875 
Q 50.484375 35.9375 44.390625 34.1875 
M 19.671875 64.796875 
L 19.671875 38.921875 
L 32.078125 38.921875 
Q 39.203125 38.921875 42.84375 42.21875 
Q 46.484375 45.515625 46.484375 51.90625 
Q 46.484375 58.296875 42.84375 61.546875 
Q 39.203125 64.796875 32.078125 64.796875 
z
" id="BitstreamVeraSans-Roman-52"/>
      <path d="M 44.28125 53.078125 
L 44.28125 44.578125 
Q 40.484375 46.53125 36.375 47.5 
Q 32.28125 48.484375 27.875 48.484375 
Q 21.1875 48.484375 17.84375 46.4375 
Q 14.5 44.390625 14.5 40.28125 
Q 14.5 37.15625 16.890625 35.375 
Q 19.28125 33.59375 26.515625 31.984375 
L 29.59375 31.296875 
Q 39.15625 29.25 43.1875 25.515625 
Q 47.21875 21.78125 47.21875 15.09375 
Q 47.21875 7.46875 41.1875 3.015625 
Q 35.15625 -1.421875 24.609375 -1.421875 
Q 20.21875 -1.421875 15.453125 -0.5625 
Q 10.6875 0.296875 5.421875 2 
L 5.421875 11.28125 
Q 10.40625 8.6875 15.234375 7.390625 
Q 20.0625 6.109375 24.8125 6.109375 
Q 31.15625 6.109375 34.5625 8.28125 
Q 37.984375 10.453125 37.984375 14.40625 
Q 37.984375 18.0625 35.515625 20.015625 
Q 33.0625 21.96875 24.703125 23.78125 
L 21.578125 24.515625 
Q 13.234375 26.265625 9.515625 29.90625 
Q 5.8125 33.546875 5.8125 39.890625 
Q 5.8125 47.609375 11.28125 51.796875 
Q 16.75 56 26.8125 56 
Q 31.78125 56 36.171875 55.265625 
Q 40.578125 54.546875 44.28125 53.078125 
" id="BitstreamVeraSans-Roman-73"/>
      <path d="M 14.796875 27.296875 
Q 14.796875 17.390625 18.875 11.75 
Q 22.953125 6.109375 30.078125 6.109375 
Q 37.203125 6.109375 41.296875 11.75 
Q 45.40625 17.390625 45.40625 27.296875 
Q 45.40625 37.203125 41.296875 42.84375 
Q 37.203125 48.484375 30.078125 48.484375 
Q 22.953125 48.484375 18.875 42.84375 
Q 14.796875 37.203125 14.796875 27.296875 
M 45.40625 8.203125 
Q 42.578125 3.328125 38.25 0.953125 
Q 33.9375 -1.421875 27.875 -1.421875 
Q 17.96875 -1.421875 11.734375 6.484375 
Q 5.515625 14.40625 5.515625 27.296875 
Q 5.515625 40.1875 11.734375 48.09375 
Q 17.96875 56 27.875 56 
Q 33.9375 56 38.25 53.625 
Q 42.578125 51.265625 45.40625 46.390625 
L 45.40625 54.6875 
L 54.390625 54.6875 
L 54.390625 -20.796875 
L 45.40625 -20.796875 
z
" id="BitstreamVeraSans-Roman-71"/>
     </defs>
     <g transform="translate(718.1052 325.699445438)scale(0.09996 -0.09996)">
      <use xlink:href="#BitstreamVeraSans-Roman-50"/>
      <use x="60.287109375" xlink:href="#BitstreamVeraSans-Roman-72"/>
      <use x="101.369140625" xlink:href="#BitstreamVeraSans-Roman-65"/>
      <use x="162.892578125" xlink:href="#BitstreamVeraSans-Roman-73"/>
      <use x="214.9921875" xlink:href="#BitstreamVeraSans-Roman-65"/>
      <use x="276.515625" xlink:href="#BitstreamVeraSans-Roman-71"/>
      <use x="339.9921875" xlink:href="#BitstreamVeraSans-Roman-52"/>
     </g>
    </g>
    <g id="line2d_173">
     <path d="M 693.1152 336.873099 
L 707.1096 336.873099 
" style="fill:none;stroke:#000000;stroke-dasharray:6.000000,6.000000;stroke-dashoffset:0.0;"/>
    </g>
    <g id="line2d_174"/>
    <g id="text_21">
     <!-- mapped -->
     <defs>
      <path d="M 52 44.1875 
Q 55.375 50.25 60.0625 53.125 
Q 64.75 56 71.09375 56 
Q 79.640625 56 84.28125 50.015625 
Q 88.921875 44.046875 88.921875 33.015625 
L 88.921875 0 
L 79.890625 0 
L 79.890625 32.71875 
Q 79.890625 40.578125 77.09375 44.375 
Q 74.3125 48.1875 68.609375 48.1875 
Q 61.625 48.1875 57.5625 43.546875 
Q 53.515625 38.921875 53.515625 30.90625 
L 53.515625 0 
L 44.484375 0 
L 44.484375 32.71875 
Q 44.484375 40.625 41.703125 44.40625 
Q 38.921875 48.1875 33.109375 48.1875 
Q 26.21875 48.1875 22.15625 43.53125 
Q 18.109375 38.875 18.109375 30.90625 
L 18.109375 0 
L 9.078125 0 
L 9.078125 54.6875 
L 18.109375 54.6875 
L 18.109375 46.1875 
Q 21.1875 51.21875 25.484375 53.609375 
Q 29.78125 56 35.6875 56 
Q 41.65625 56 45.828125 52.96875 
Q 50 49.953125 52 44.1875 
" id="BitstreamVeraSans-Roman-6d"/>
      <path d="M 45.40625 46.390625 
L 45.40625 75.984375 
L 54.390625 75.984375 
L 54.390625 0 
L 45.40625 0 
L 45.40625 8.203125 
Q 42.578125 3.328125 38.25 0.953125 
Q 33.9375 -1.421875 27.875 -1.421875 
Q 17.96875 -1.421875 11.734375 6.484375 
Q 5.515625 14.40625 5.515625 27.296875 
Q 5.515625 40.1875 11.734375 48.09375 
Q 17.96875 56 27.875 56 
Q 33.9375 56 38.25 53.625 
Q 42.578125 51.265625 45.40625 46.390625 
M 14.796875 27.296875 
Q 14.796875 17.390625 18.875 11.75 
Q 22.953125 6.109375 30.078125 6.109375 
Q 37.203125 6.109375 41.296875 11.75 
Q 45.40625 17.390625 45.40625 27.296875 
Q 45.40625 37.203125 41.296875 42.84375 
Q 37.203125 48.484375 30.078125 48.484375 
Q 22.953125 48.484375 18.875 42.84375 
Q 14.796875 37.203125 14.796875 27.296875 
" id="BitstreamVeraSans-Roman-64"/>
     </defs>
     <g transform="translate(718.1052 340.371699188)scale(0.09996 -0.09996)">
      <use xlink:href="#BitstreamVeraSans-Roman-6d"/>
      <use x="97.412109375" xlink:href="#BitstreamVeraSans-Roman-61"/>
      <use x="158.69140625" xlink:href="#BitstreamVeraSans-Roman-70"/>
      <use x="222.16796875" xlink:href="#BitstreamVeraSans-Roman-70"/>
      <use x="285.64453125" xlink:href="#BitstreamVeraSans-Roman-65"/>
      <use x="347.16796875" xlink:href="#BitstreamVeraSans-Roman-64"/>
     </g>
    </g>
   </g>
  </g>
  <g id="text_22">
   <!-- Bases sampled -->
   <defs>
    <path id="BitstreamVeraSans-Roman-20"/>
    <path d="M 19.671875 34.8125 
L 19.671875 8.109375 
L 35.5 8.109375 
Q 43.453125 8.109375 47.28125 11.40625 
Q 51.125 14.703125 51.125 21.484375 
Q 51.125 28.328125 47.28125 31.5625 
Q 43.453125 34.8125 35.5 34.8125 
z
M 19.671875 64.796875 
L 19.671875 42.828125 
L 34.28125 42.828125 
Q 41.5 42.828125 45.03125 45.53125 
Q 48.578125 48.25 48.578125 53.8125 
Q 48.578125 59.328125 45.03125 62.0625 
Q 41.5 64.796875 34.28125 64.796875 
z
M 9.8125 72.90625 
L 35.015625 72.90625 
Q 46.296875 72.90625 52.390625 68.21875 
Q 58.5 63.53125 58.5 54.890625 
Q 58.5 48.1875 55.375 44.234375 
Q 52.25 40.28125 46.1875 39.3125 
Q 53.46875 37.75 57.5 32.78125 
Q 61.53125 27.828125 61.53125 20.40625 
Q 61.53125 10.640625 54.890625 5.3125 
Q 48.25 0 35.984375 0 
L 9.8125 0 
z
" id="BitstreamVeraSans-Roman-42"/>
    <path d="M 9.421875 75.984375 
L 18.40625 75.984375 
L 18.40625 0 
L 9.421875 0 
z
" id="BitstreamVeraSans-Roman-6c"/>
   </defs>
   <g transform="translate(350.7328125 547.2)scale(0.12 -0.12)">
    <use xlink:href="#BitstreamVeraSans-Roman-42"/>
    <use x="68.603515625" xlink:href="#BitstreamVeraSans-Roman-61"/>
    <use x="129.8828125" xlink:href="#BitstreamVeraSans-Roman-73"/>
    <use x="181.982421875" xlink:href="#BitstreamVeraSans-Roman-65"/>
    <use x="243.505859375" xlink:href="#BitstreamVeraSans-Roman-73"/>
    <use x="295.60546875" xlink:href="#BitstreamVeraSans-Roman-20"/>
    <use x="327.392578125" xlink:href="#BitstreamVeraSans-Roman-73"/>
    <use x="379.4921875" xlink:href="#BitstreamVeraSans-Roman-61"/>
    <use x="440.771484375" xlink:href="#BitstreamVeraSans-Roman-6d"/>
    <use x="538.18359375" xlink:href="#BitstreamVeraSans-Roman-70"/>
    <use x="601.66015625" xlink:href="#BitstreamVeraSans-Roman-6c"/>
    <use x="629.443359375" xlink:href="#BitstreamVeraSans-Roman-65"/>
    <use x="690.966796875" xlink:href="#BitstreamVeraSans-Roman-64"/>
   </g>
  </g>
  <g id="text_23">
   <!-- Fraction of data &gt; or = depth -->
   <defs>
    <path d="M 54.890625 33.015625 
L 54.890625 0 
L 45.90625 0 
L 45.90625 32.71875 
Q 45.90625 40.484375 42.875 44.328125 
Q 39.84375 48.1875 33.796875 48.1875 
Q 26.515625 48.1875 22.3125 43.546875 
Q 18.109375 38.921875 18.109375 30.90625 
L 18.109375 0 
L 9.078125 0 
L 9.078125 54.6875 
L 18.109375 54.6875 
L 18.109375 46.1875 
Q 21.34375 51.125 25.703125 53.5625 
Q 30.078125 56 35.796875 56 
Q 45.21875 56 50.046875 50.171875 
Q 54.890625 44.34375 54.890625 33.015625 
" id="BitstreamVeraSans-Roman-6e"/>
    <path d="M 9.8125 72.90625 
L 51.703125 72.90625 
L 51.703125 64.59375 
L 19.671875 64.59375 
L 19.671875 43.109375 
L 48.578125 43.109375 
L 48.578125 34.8125 
L 19.671875 34.8125 
L 19.671875 0 
L 9.8125 0 
z
" id="BitstreamVeraSans-Roman-46"/>
    <path d="M 9.421875 54.6875 
L 18.40625 54.6875 
L 18.40625 0 
L 9.421875 0 
z
M 9.421875 75.984375 
L 18.40625 75.984375 
L 18.40625 64.59375 
L 9.421875 64.59375 
z
" id="BitstreamVeraSans-Roman-69"/>
    <path d="M 10.59375 45.40625 
L 73.1875 45.40625 
L 73.1875 37.203125 
L 10.59375 37.203125 
z
M 10.59375 25.484375 
L 73.1875 25.484375 
L 73.1875 17.1875 
L 10.59375 17.1875 
z
" id="BitstreamVeraSans-Roman-3d"/>
    <path d="M 10.59375 49.21875 
L 10.59375 58.109375 
L 73.1875 35.40625 
L 73.1875 27.296875 
L 10.59375 4.59375 
L 10.59375 13.484375 
L 60.890625 31.296875 
z
" id="BitstreamVeraSans-Roman-3e"/>
   </defs>
   <g transform="translate(42.91125 456.436875)rotate(-90.0)scale(0.12 -0.12)">
    <use xlink:href="#BitstreamVeraSans-Roman-46"/>
    <use x="57.41015625" xlink:href="#BitstreamVeraSans-Roman-72"/>
    <use x="98.5234375" xlink:href="#BitstreamVeraSans-Roman-61"/>
    <use x="159.802734375" xlink:href="#BitstreamVeraSans-Roman-63"/>
    <use x="214.783203125" xlink:href="#BitstreamVeraSans-Roman-74"/>
    <use x="253.9921875" xlink:href="#BitstreamVeraSans-Roman-69"/>
    <use x="281.775390625" xlink:href="#BitstreamVeraSans-Roman-6f"/>
    <use x="342.95703125" xlink:href="#BitstreamVeraSans-Roman-6e"/>
    <use x="406.3359375" xlink:href="#BitstreamVeraSans-Roman-20"/>
    <use x="438.123046875" xlink:href="#BitstreamVeraSans-Roman-6f"/>
    <use x="499.3046875" xlink:href="#BitstreamVeraSans-Roman-66"/>
    <use x="534.509765625" xlink:href="#BitstreamVeraSans-Roman-20"/>
    <use x="566.296875" xlink:href="#BitstreamVeraSans-Roman-64"/>
    <use x="629.7734375" xlink:href="#BitstreamVeraSans-Roman-61"/>
    <use x="691.052734375" xlink:href="#BitstreamVeraSans-Roman-74"/>
    <use x="730.26171875" xlink:href="#BitstreamVeraSans-Roman-61"/>
    <use x="791.541015625" xlink:href="#BitstreamVeraSans-Roman-20"/>
    <use x="823.328125" xlink:href="#BitstreamVeraSans-Roman-3e"/>
    <use x="907.1171875" xlink:href="#BitstreamVeraSans-Roman-20"/>
    <use x="938.904296875" xlink:href="#BitstreamVeraSans-Roman-6f"/>
    <use x="1000.0859375" xlink:href="#BitstreamVeraSans-Roman-72"/>
    <use x="1041.19921875" xlink:href="#BitstreamVeraSans-Roman-20"/>
    <use x="1072.98632812" xlink:href="#BitstreamVeraSans-Roman-3d"/>
    <use x="1156.77539062" xlink:href="#BitstreamVeraSans-Roman-20"/>
    <use x="1188.5625" xlink:href="#BitstreamVeraSans-Roman-64"/>
    <use x="1252.0390625" xlink:href="#BitstreamVeraSans-Roman-65"/>
    <use x="1313.5625" xlink:href="#BitstreamVeraSans-Roman-70"/>
    <use x="1377.0390625" xlink:href="#BitstreamVeraSans-Roman-74"/>
    <use x="1416.24804688" xlink:href="#BitstreamVeraSans-Roman-68"/>
   </g>
  </g>
 </g>
 <defs>
  <clipPath id="peff4c6d16c">
   <rect height="460.8" width="554.4" x="99.0" y="57.6"/>
  </clipPath>
 </defs>
</svg>
